<?xml version="1.0" encoding="UTF-8" standalone="no"?>
<!-- Generator: Adobe Illustrator 12.0.1, SVG Export Plug-In . SVG Version: 6.00 Build 51448)  -->

<svg
   xmlns:dc="http://purl.org/dc/elements/1.1/"
   xmlns:cc="http://creativecommons.org/ns#"
   xmlns:rdf="http://www.w3.org/1999/02/22-rdf-syntax-ns#"
   xmlns:svg="http://www.w3.org/2000/svg"
   xmlns="http://www.w3.org/2000/svg"
   xmlns:xlink="http://www.w3.org/1999/xlink"
   xmlns:sodipodi="http://sodipodi.sourceforge.net/DTD/sodipodi-0.dtd"
   xmlns:inkscape="http://www.inkscape.org/namespaces/inkscape"
   version="1.1"
   id="Layer_1"
   width="396"
   height="468"
   viewBox="0 0 396 468"
   overflow="visible"
   enable-background="new 0 0 396 468"
   xml:space="preserve"
   sodipodi:docname="Computer Modern Sample.svg"
   inkscape:version="0.92.3 (2405546, 2018-03-11)"><title
   id="title5159">Computer Modern Sample</title><metadata
   id="metadata179"><rdf:RDF><cc:Work
       rdf:about=""><dc:format>image/svg+xml</dc:format><dc:type
         rdf:resource="http://purl.org/dc/dcmitype/StillImage" /><dc:title>Computer Modern Sample</dc:title><dc:date>27.03.2019</dc:date><dc:creator><cc:Agent><dc:title>Rogi Lensing</dc:title></cc:Agent></dc:creator><dc:rights><cc:Agent><dc:title>CC-BY 3.0</dc:title></cc:Agent></dc:rights><dc:relation>https://commons.wikimedia.org/wiki/File:ArialMTsp.svg</dc:relation><dc:description>Font Sample of Computer Modern Font</dc:description><cc:license
         rdf:resource="http://creativecommons.org/licenses/by/3.0/" /></cc:Work></rdf:RDF></metadata><defs
   id="defs177" /><sodipodi:namedview
   pagecolor="#ffffff"
   bordercolor="#666666"
   borderopacity="1"
   objecttolerance="10"
   gridtolerance="10"
   guidetolerance="10"
   inkscape:pageopacity="0"
   inkscape:pageshadow="2"
   inkscape:window-width="1353"
   inkscape:window-height="694"
   id="namedview175"
   showgrid="false"
   showguides="true"
   inkscape:guide-bbox="true"
   inkscape:zoom="0.35355339"
   inkscape:cx="77.278699"
   inkscape:cy="121.89019"
   inkscape:window-x="0"
   inkscape:window-y="0"
   inkscape:window-maximized="0"
   inkscape:current-layer="layer1" />
<g
   inkscape:groupmode="layer"
   id="layer1"
   inkscape:label="Hintergrund"><g
     id="g172"
     transform="translate(1.7661547,0.06197034)">
	<g
   id="g12">
		<defs
   id="defs3">
			<rect
   id="XMLID_1_"
   width="396"
   height="468"
   x="0"
   y="0" />
		</defs>
		<clipPath
   id="XMLID_3_">
			<use
   xlink:href="#XMLID_1_"
   id="use5"
   x="0"
   y="0"
   width="100%"
   height="100%" />
		</clipPath>
		<path
   style="clip-rule:evenodd;fill:#ffffff;fill-rule:evenodd"
   clip-path="url(#XMLID_3_)"
   d="M 0,0 H 396 V 468 H 0 Z"
   id="rect8" />
		<path
   clip-path="url(#XMLID_3_)"
   d="M 0,0 H 396 V 312 H 0 Z m 0,0"
   id="path10"
   inkscape:connector-curvature="0"
   style="clip-rule:evenodd;fill:#e8e6cb;fill-rule:evenodd" />
	</g>
	<path
   style="clip-rule:evenodd;fill:#2a7fff;fill-rule:evenodd"
   d="M 0,312 H 396 V 468 H 0 Z"
   id="rect14" />
	<g
   id="g26">
		
		
		
		
		
	</g>
	<g
   id="g54">
		
		
		
		
		
		
		
		
		
		
		
		
		
	</g>
	<g
   id="g82">
		
		
		
		
		
		
		
		
		
		
		
		
		
	</g>
	<g
   id="g88">
		
		
	</g>
	<g
   id="g106">
		
		
		
		
		
		
		
		
	</g>
	<g
   id="g110">
		
	</g>
	<g
   id="g116">
		
		
	</g>
	<g
   id="g122">
		
		
	</g>
	<g
   id="g128">
		
		
	</g>
	<g
   id="g134">
		
		
	</g>
	<g
   id="g140">
		
		
	</g>
	<g
   id="g146">
		
		
	</g>
	<g
   id="g170">
		
		
		
		
		
		
		
		
		
		
		
	</g>
</g><g
     aria-label="Computer Modern"
     style="font-style:normal;font-weight:normal;font-size:40px;line-height:1.25;font-family:sans-serif;letter-spacing:0px;word-spacing:0px;fill:#000000;fill-opacity:1;stroke:none"
     id="text3974"><path
       d="m 28.265823,46.432594 q 0,-6.035156 4.121094,-10.273437 4.121094,-4.257813 9.785156,-4.257813 1.757813,0 3.320313,0.644532 1.5625,0.644531 2.285156,1.210937 0.722656,0.546875 1.757813,1.582031 l 2.011718,-2.949218 q 0.3125,-0.488282 0.625,-0.488282 0.332032,0 0.390625,0.195313 0.05859,0.175781 0.05859,0.761719 v 9.492187 q 0,0.644531 -0.07813,0.800781 -0.07813,0.15625 -0.566406,0.15625 -0.390625,0 -0.488281,-0.117187 -0.07813,-0.117188 -0.15625,-0.566406 -0.605469,-4.316407 -3.007813,-6.894532 -2.382812,-2.578125 -5.703125,-2.578125 -0.957031,0 -2.03125,0.214844 -1.054687,0.214844 -2.597656,1.035156 -1.523438,0.820313 -2.714844,2.1875 -1.171875,1.347657 -2.03125,3.925782 -0.859375,2.558593 -0.859375,5.957031 0,3.359375 0.859375,5.9375 0.859375,2.578125 2.03125,3.925781 1.191406,1.328125 2.714844,2.148438 1.542969,0.820312 2.617187,1.054687 1.09375,0.214844 2.050782,0.214844 3.4375,0 6.074218,-2.441406 2.636719,-2.441407 2.890625,-6.5625 0.03906,-0.195313 0.03906,-0.273438 0,-0.09766 0.03906,-0.195312 0.03906,-0.09766 0.136719,-0.136719 0.09766,-0.03906 0.253906,-0.03906 0.527344,0 0.527344,0.683594 0,3.808594 -2.929687,7.011719 -2.910157,3.183594 -7.519532,3.183594 -5.683593,0 -9.804687,-4.21875 -4.101563,-4.21875 -4.101563,-10.332032 z"
       style="font-style:normal;font-variant:normal;font-weight:normal;font-stretch:normal;font-size:40px;font-family:'CMU Serif';-inkscape-font-specification:'CMU Serif'"
       id="path5011" /><path
       d="m 58.67598,57.956032 q -2.636719,-2.617188 -2.636719,-6.40625 0,-3.808594 2.578125,-6.582031 2.597656,-2.792969 6.308594,-2.792969 3.632812,0 6.230468,2.773437 2.617188,2.753907 2.617188,6.601563 0,3.769531 -2.636719,6.386719 -2.617187,2.617187 -6.25,2.617187 -3.554687,0 -6.210937,-2.597656 z m 0.683593,-6.738281 q 0,3.886718 1.015625,5.644531 1.5625,2.675781 4.550782,2.675781 1.484375,0 2.714843,-0.800781 1.25,-0.800781 1.933594,-2.148438 0.878906,-1.757812 0.878906,-5.371093 0,-3.847657 -1.054687,-5.546875 -1.5625,-2.597657 -4.511719,-2.597657 -1.289062,0 -2.558594,0.683594 -1.25,0.664063 -2.011718,1.992188 -0.957032,1.757812 -0.957032,5.46875 z"
       style="font-style:normal;font-variant:normal;font-weight:normal;font-stretch:normal;font-size:40px;font-family:'CMU Serif';-inkscape-font-specification:'CMU Serif'"
       id="path5013" /><path
       d="m 76.215042,60.104469 v -1.230468 q 2.128906,0 2.617188,-0.253907 0.488281,-0.273437 0.488281,-1.5625 V 46.334938 q 0,-1.484375 -0.527344,-1.855469 -0.507812,-0.371093 -2.578125,-0.371093 v -1.25 l 5.625,-0.429688 v 4.199219 q 1.875,-4.199219 5.917969,-4.199219 4.6875,0 5.332031,3.90625 0.683594,-1.523437 2.109375,-2.714844 1.445313,-1.191406 3.691406,-1.191406 3.007817,0 4.199217,1.484375 0.87891,0.996094 1.05469,2.109375 0.17578,1.113281 0.17578,4.003906 v 7.636719 q 0.0391,0.839844 0.68359,1.035156 0.64454,0.175782 2.44141,0.175782 v 1.230468 q -4.08203,-0.117187 -4.47266,-0.117187 -0.3125,0 -4.531245,0.117187 v -1.230468 q 2.128905,0 2.617185,-0.253907 0.50781,-0.273437 0.50781,-1.5625 v -9.316406 q 0,-2.03125 -0.625,-3.222656 -0.625,-1.210938 -2.343745,-1.210938 -2.070313,0 -3.730469,1.738282 -1.660156,1.738281 -1.660156,4.667968 v 7.34375 q 0,1.289063 0.488281,1.5625 0.507812,0.253907 2.636719,0.253907 v 1.230468 q -4.082032,-0.117187 -4.492188,-0.117187 -0.3125,0 -4.511719,0.117187 v -1.230468 q 2.128907,0 2.617188,-0.253907 0.507812,-0.273437 0.507812,-1.5625 v -9.316406 q 0,-2.03125 -0.625,-3.222656 -0.625,-1.210938 -2.34375,-1.210938 -2.070312,0 -3.730468,1.738282 -1.660157,1.738281 -1.660157,4.667968 v 7.34375 q 0,1.289063 0.488282,1.5625 0.507812,0.253907 2.617187,0.253907 v 1.230468 q -4.082031,-0.117187 -4.472656,-0.117187 -0.3125,0 -4.511719,0.117187 z"
       style="font-style:normal;font-variant:normal;font-weight:normal;font-stretch:normal;font-size:40px;font-family:'CMU Serif';-inkscape-font-specification:'CMU Serif'"
       id="path5015" /><path
       d="m 109.32051,66.627907 q 2.12891,0 2.61719,-0.273438 0.50781,-0.253906 0.50781,-1.523437 V 46.100563 q 0,-1.328125 -0.50781,-1.660156 -0.48828,-0.332031 -2.61719,-0.332031 v -1.25 l 5.76172,-0.429688 v 2.636719 q 2.40234,-2.636719 5.60547,-2.636719 3.39844,0 5.8789,2.636719 2.48047,2.636719 2.48047,6.40625 0,3.808594 -2.63672,6.445312 -2.63671,2.636719 -6.28906,2.636719 -1.99219,0 -3.33984,-1.015625 -1.32813,-1.035156 -1.58203,-1.796875 v 0.371094 6.71875 q 0,1.289062 0.50781,1.542969 0.50781,0.253906 2.61719,0.253906 v 1.230469 q -4.19922,-0.117188 -4.51172,-0.117188 -0.39063,0 -4.49219,0.117188 z m 5.87891,-11.074219 q 0,0.605469 0.0781,0.820313 0.0977,0.214843 0.48828,0.859375 1.58203,2.421875 4.16016,2.421875 0.0195,0 0.0391,0 2.28516,0 4.02344,-2.324219 1.73828,-2.34375 1.73828,-5.859375 0,-3.359375 -1.58203,-5.703125 -1.58203,-2.34375 -3.76953,-2.34375 -1.5625,0 -2.92969,0.839844 -1.36719,0.839843 -2.24609,2.363281 z"
       style="font-style:normal;font-variant:normal;font-weight:normal;font-stretch:normal;font-size:40px;font-family:'CMU Serif';-inkscape-font-specification:'CMU Serif'"
       id="path5017" /><path
       d="m 131.68379,44.108376 v -1.25 l 5.87891,-0.429688 v 13.28125 q 0,0.957031 0.0781,1.523438 0.0781,0.546875 0.39063,1.191406 0.33203,0.644531 1.07422,0.9375 0.76172,0.292969 1.97265,0.292969 2.16797,0 3.4961,-1.777344 1.34765,-1.777344 1.34765,-4.414063 v -7.128906 q 0,-1.484375 -0.52734,-1.855469 -0.52734,-0.371093 -2.59766,-0.371093 v -1.25 l 5.87891,-0.429688 v 14.199219 q 0,1.484375 0.50781,1.875 0.52735,0.371094 2.61719,0.371094 v 1.230468 l -5.76172,0.449219 v -3.613281 q -1.67969,3.59375 -5.15625,3.613281 -1.75781,0 -2.96875,-0.449219 -1.19141,-0.449218 -1.79687,-0.996093 -0.60547,-0.566407 -0.9375,-1.640625 -0.3125,-1.074219 -0.35157,-1.738282 -0.0391,-0.664062 -0.0391,-1.953125 v -5.996093 q 0,-2.714844 -0.39062,-3.183594 -0.39063,-0.488281 -2.71485,-0.488281 z"
       style="font-style:normal;font-variant:normal;font-weight:normal;font-stretch:normal;font-size:40px;font-family:'CMU Serif';-inkscape-font-specification:'CMU Serif'"
       id="path5019" /><path
       d="m 153.34395,44.108376 v -0.878907 q 1.83594,-0.07813 3.04687,-1.367187 1.23047,-1.308594 1.64063,-2.910156 0.42969,-1.601563 0.46875,-3.457032 h 0.99609 v 7.363282 h 5.72266 v 1.25 h -5.72266 v 11.113281 q 0,4.316406 2.69531,4.316406 1.15235,0 1.91407,-1.171875 0.76172,-1.191406 0.76172,-3.300781 v -2.207031 h 0.99609 v 2.285156 q 0,2.167969 -0.99609,3.789062 -0.9961,1.621094 -2.96875,1.621094 -0.72266,0 -1.44532,-0.195312 -0.70312,-0.175782 -1.64062,-0.644532 -0.91797,-0.488281 -1.50391,-1.660156 -0.5664,-1.191406 -0.5664,-2.910156 V 44.108376 Z"
       style="font-style:normal;font-variant:normal;font-weight:normal;font-stretch:normal;font-size:40px;font-family:'CMU Serif';-inkscape-font-specification:'CMU Serif'"
       id="path5021" /><path
       d="m 169.24239,51.295876 q 0,-3.769532 2.42187,-6.445313 2.42188,-2.675781 5.89844,-2.675781 3.51562,0 5.33203,2.285156 1.83594,2.285156 1.83594,5.566406 0,0.605469 -0.15625,0.722657 -0.15625,0.117187 -0.83985,0.117187 H 172.5627 q 0,4.082031 1.21094,5.996094 1.67968,2.675781 4.51171,2.675781 0.39063,0 0.85938,-0.07813 0.46875,-0.07813 1.42578,-0.410156 0.95703,-0.351563 1.79688,-1.269531 0.83984,-0.917969 1.32812,-2.363282 0.11719,-0.566406 0.50781,-0.546875 0.52735,0 0.52735,0.46875 0,0.351563 -0.39063,1.152344 -0.37109,0.78125 -1.09375,1.71875 -0.72265,0.9375 -2.1289,1.640625 -1.38672,0.703125 -3.06641,0.703125 -3.51563,0 -6.17188,-2.65625 -2.63671,-2.675781 -2.63671,-6.601562 z m 3.35937,-1.269532 h 9.49219 q 0,-0.839843 -0.15625,-1.777343 -0.13672,-0.9375 -0.56641,-2.226563 -0.41015,-1.308594 -1.38672,-2.128906 -0.97656,-0.820313 -2.42187,-0.820313 -0.64453,0 -1.34766,0.273438 -0.68359,0.273437 -1.52344,0.9375 -0.83984,0.664062 -1.42578,2.167969 -0.58593,1.503906 -0.66406,3.574218 z"
       style="font-style:normal;font-variant:normal;font-weight:normal;font-stretch:normal;font-size:40px;font-family:'CMU Serif';-inkscape-font-specification:'CMU Serif'"
       id="path5023" /><path
       d="m 186.97676,60.104469 v -1.230468 q 2.12891,0 2.61719,-0.253907 0.50781,-0.273437 0.50781,-1.5625 V 46.334938 q 0,-1.484375 -0.52734,-1.855469 -0.50782,-0.371093 -2.59766,-0.371093 v -1.25 l 5.56641,-0.429688 v 4.394531 q 0.5664,-1.71875 1.75781,-3.046875 1.21094,-1.347656 3.16406,-1.347656 1.28906,0 2.10938,0.722656 0.83984,0.722657 0.83984,1.71875 0,0.878907 -0.54687,1.328125 -0.52735,0.429688 -1.17188,0.429688 -0.72266,0 -1.23047,-0.449219 -0.48828,-0.46875 -0.48828,-1.269531 0,-0.488281 0.21484,-0.859375 0.23438,-0.390625 0.41016,-0.527344 0.17578,-0.136719 0.29297,-0.175781 -0.0781,-0.03906 -0.42969,-0.03906 -2.20703,0 -3.47656,2.207032 -1.25,2.1875 -1.25,5.3125 v 6.152343 q 0,1.152344 0.46875,1.523438 0.48828,0.371094 2.57812,0.371094 h 0.83985 v 1.230468 q -1.60156,-0.117187 -5.07813,-0.117187 -0.48828,0 -1.25,0.01953 -0.76172,0.01953 -1.75781,0.05859 -0.99609,0.03906 -1.5625,0.03906 z"
       style="font-style:normal;font-variant:normal;font-weight:normal;font-stretch:normal;font-size:40px;font-family:'CMU Serif';-inkscape-font-specification:'CMU Serif'"
       id="path5025" /><path
       d="m 216.2541,60.104469 v -1.230468 q 1.44532,0 2.36329,-0.273438 0.91796,-0.292969 1.25,-0.820312 0.35156,-0.546875 0.42968,-0.898438 0.0781,-0.371094 0.0781,-0.976562 v -20 q 0,-1.152344 -0.50781,-1.503907 -0.48829,-0.371093 -2.65625,-0.371093 h -0.95704 v -1.25 h 6.75782 q 0.72265,0 0.91797,0.136718 0.19531,0.117188 0.48828,0.742188 l 8.67187,22.402344 8.75,-22.519532 q 0.19531,-0.566406 0.3711,-0.664062 0.19531,-0.09766 0.95703,-0.09766 h 6.75781 v 1.25 h -0.95703 q -2.16797,0 -2.67578,0.371093 -0.48828,0.351563 -0.48828,1.503907 v 21.074218 q 0,1.152344 0.48828,1.523438 0.50781,0.371094 2.67578,0.371094 h 0.95703 v 1.230468 q -1.48438,-0.117187 -5.72266,-0.117187 -4.27734,0 -5.76172,0.117187 v -1.230468 h 0.97657 q 2.16797,0 2.65625,-0.351563 0.48828,-0.371094 0.48828,-1.542969 V 34.030251 h -0.0391 l -9.82422,25.3125 q -0.27344,0.761718 -0.72266,0.761718 -0.48828,0 -0.80078,-0.878906 l -9.64844,-24.882812 h -0.0391 v 21.5625 q 0,0.605468 0.0781,0.976562 0.0781,0.351563 0.41016,0.898438 0.35156,0.527343 1.26953,0.820312 0.91797,0.273438 2.36328,0.273438 v 1.230468 q -4.19922,-0.117187 -4.6875,-0.117187 -0.46875,0 -4.66797,0.117187 z"
       style="font-style:normal;font-variant:normal;font-weight:normal;font-stretch:normal;font-size:40px;font-family:'CMU Serif';-inkscape-font-specification:'CMU Serif'"
       id="path5027" /><path
       d="m 255.16035,57.956032 q -2.63671,-2.617188 -2.63671,-6.40625 0,-3.808594 2.57812,-6.582031 2.59766,-2.792969 6.30859,-2.792969 3.63282,0 6.23047,2.773437 2.61719,2.753907 2.61719,6.601563 0,3.769531 -2.63672,6.386719 -2.61719,2.617187 -6.25,2.617187 -3.55469,0 -6.21094,-2.597656 z m 0.6836,-6.738281 q 0,3.886718 1.01562,5.644531 1.5625,2.675781 4.55078,2.675781 1.48438,0 2.71485,-0.800781 1.25,-0.800781 1.93359,-2.148438 0.87891,-1.757812 0.87891,-5.371093 0,-3.847657 -1.05469,-5.546875 -1.5625,-2.597657 -4.51172,-2.597657 -1.28906,0 -2.55859,0.683594 -1.25,0.664063 -2.01172,1.992188 -0.95703,1.757812 -0.95703,5.46875 z"
       style="font-style:normal;font-variant:normal;font-weight:normal;font-stretch:normal;font-size:40px;font-family:'CMU Serif';-inkscape-font-specification:'CMU Serif'"
       id="path5029" /><path
       d="m 273.87129,51.510719 q 0,-3.808593 2.65625,-6.445312 2.65625,-2.636719 6.25,-2.636719 3.04688,0 5.03906,2.480469 v -8.652344 q 0,-1.484375 -0.52734,-1.855469 -0.50781,-0.371093 -2.57812,-0.371093 v -1.25 l 5.76171,-0.429688 v 24.277344 q 0,1.484375 0.50782,1.875 0.52734,0.371094 2.59765,0.371094 v 1.230468 l -5.8789,0.449219 v -2.65625 q -2.07032,2.636719 -5.35157,2.65625 -3.4375,0 -5.95703,-2.636719 -2.51953,-2.636718 -2.51953,-6.40625 z m 3.32031,0.03906 q 0,3.710937 1.15235,5.546875 1.60156,2.558594 4.19922,2.558594 2.96875,0 4.72656,-2.792969 0.44922,-0.683594 0.42969,-1.484375 v -8.203125 q 0,-0.800781 -0.42969,-1.464844 -1.64063,-2.402344 -4.31641,-2.402344 -2.79297,0 -4.53125,2.558594 -1.23047,1.914063 -1.23047,5.683594 z"
       style="font-style:normal;font-variant:normal;font-weight:normal;font-stretch:normal;font-size:40px;font-family:'CMU Serif';-inkscape-font-specification:'CMU Serif'"
       id="path5031" /><path
       d="m 295.80489,51.295876 q 0,-3.769532 2.42187,-6.445313 2.42188,-2.675781 5.89844,-2.675781 3.51562,0 5.33203,2.285156 1.83594,2.285156 1.83594,5.566406 0,0.605469 -0.15625,0.722657 -0.15625,0.117187 -0.83985,0.117187 H 299.1252 q 0,4.082031 1.21094,5.996094 1.67968,2.675781 4.51171,2.675781 0.39063,0 0.85938,-0.07813 0.46875,-0.07813 1.42578,-0.410156 0.95703,-0.351563 1.79688,-1.269531 0.83984,-0.917969 1.32812,-2.363282 0.11719,-0.566406 0.50781,-0.546875 0.52735,0 0.52735,0.46875 0,0.351563 -0.39063,1.152344 -0.37109,0.78125 -1.09375,1.71875 -0.72265,0.9375 -2.1289,1.640625 -1.38672,0.703125 -3.06641,0.703125 -3.51563,0 -6.17188,-2.65625 -2.63671,-2.675781 -2.63671,-6.601562 z m 3.35937,-1.269532 h 9.49219 q 0,-0.839843 -0.15625,-1.777343 -0.13672,-0.9375 -0.56641,-2.226563 -0.41015,-1.308594 -1.38672,-2.128906 -0.97656,-0.820313 -2.42187,-0.820313 -0.64453,0 -1.34766,0.273438 -0.68359,0.273437 -1.52344,0.9375 -0.83984,0.664062 -1.42578,2.167969 -0.58593,1.503906 -0.66406,3.574218 z"
       style="font-style:normal;font-variant:normal;font-weight:normal;font-stretch:normal;font-size:40px;font-family:'CMU Serif';-inkscape-font-specification:'CMU Serif'"
       id="path5033" /><path
       d="m 313.53926,60.104469 v -1.230468 q 2.12891,0 2.61719,-0.253907 0.50781,-0.273437 0.50781,-1.5625 V 46.334938 q 0,-1.484375 -0.52734,-1.855469 -0.50782,-0.371093 -2.59766,-0.371093 v -1.25 l 5.56641,-0.429688 v 4.394531 q 0.5664,-1.71875 1.75781,-3.046875 1.21094,-1.347656 3.16406,-1.347656 1.28906,0 2.10938,0.722656 0.83984,0.722657 0.83984,1.71875 0,0.878907 -0.54687,1.328125 -0.52735,0.429688 -1.17188,0.429688 -0.72266,0 -1.23047,-0.449219 -0.48828,-0.46875 -0.48828,-1.269531 0,-0.488281 0.21484,-0.859375 0.23438,-0.390625 0.41016,-0.527344 0.17578,-0.136719 0.29297,-0.175781 -0.0781,-0.03906 -0.42969,-0.03906 -2.20703,0 -3.47656,2.207032 -1.25,2.1875 -1.25,5.3125 v 6.152343 q 0,1.152344 0.46875,1.523438 0.48828,0.371094 2.57812,0.371094 h 0.83985 v 1.230468 q -1.60156,-0.117187 -5.07813,-0.117187 -0.48828,0 -1.25,0.01953 -0.76172,0.01953 -1.75781,0.05859 -0.99609,0.03906 -1.5625,0.03906 z"
       style="font-style:normal;font-variant:normal;font-weight:normal;font-stretch:normal;font-size:40px;font-family:'CMU Serif';-inkscape-font-specification:'CMU Serif'"
       id="path5035" /><path
       d="m 329.34004,60.104469 v -1.230468 q 2.12891,0 2.61719,-0.253907 0.48828,-0.273437 0.48828,-1.5625 V 46.334938 q 0,-1.484375 -0.52734,-1.855469 -0.50782,-0.371093 -2.57813,-0.371093 v -1.25 l 5.625,-0.429688 v 4.199219 q 1.875,-4.199219 5.91797,-4.199219 3.00781,0 4.19922,1.484375 0.87891,0.996094 1.05469,2.109375 0.19531,1.113281 0.19531,4.003906 v 7.636719 q 0.0391,0.839844 0.68359,1.035156 0.64453,0.175782 2.44141,0.175782 v 1.230468 q -4.08203,-0.117187 -4.49219,-0.117187 -0.3125,0 -4.51172,0.117187 v -1.230468 q 2.12891,0 2.61719,-0.253907 0.50781,-0.273437 0.50781,-1.5625 v -9.316406 q 0,-2.03125 -0.625,-3.222656 -0.625,-1.210938 -2.34375,-1.210938 -2.07031,0 -3.73047,1.738282 -1.66015,1.738281 -1.66015,4.667968 v 7.34375 q 0,1.289063 0.48828,1.5625 0.50781,0.253907 2.61719,0.253907 v 1.230468 q -4.08203,-0.117187 -4.47266,-0.117187 -0.3125,0 -4.51172,0.117187 z"
       style="font-style:normal;font-variant:normal;font-weight:normal;font-stretch:normal;font-size:40px;font-family:'CMU Serif';-inkscape-font-specification:'CMU Serif'"
       id="path5037" /></g><g
     aria-label="Aa  Ee  Rr"
     style="font-style:normal;font-weight:normal;font-size:40px;line-height:1.25;font-family:sans-serif;letter-spacing:0px;word-spacing:0px;fill:#000000;fill-opacity:1;stroke:none"
     id="text3980"><path
       d="m 26.678577,135.04073 v -1.23047 q 3.554688,-0.0781 4.472657,-2.69532 l 8.28125,-23.90625 q 0.15625,-0.48828 0.332031,-0.64453 0.175781,-0.15625 0.625,-0.15625 0.234375,0 0.371094,0.0391 0.15625,0.0391 0.253906,0.17578 0.09766,0.13672 0.136719,0.21484 0.03906,0.0781 0.15625,0.37109 l 8.632812,25 q 0.3125,0.9961 0.957031,1.3086 0.644532,0.29297 2.460938,0.29297 h 0.703125 v 1.23047 q -2.519531,-0.11719 -5.234375,-0.11719 -4.316406,0 -5.761719,0.11719 v -1.23047 q 3.320313,0 3.320313,-1.21094 0,-0.0781 -0.117188,-0.56641 l -2.109375,-6.11328 h -9.882812 l -1.855469,5.23438 q -0.07813,0.15625 -0.07813,0.60547 0,0.83984 0.78125,1.44531 0.78125,0.60547 2.226562,0.60547 v 1.23047 q -3.847656,-0.11719 -4.609375,-0.11719 -1.308593,0 -4.0625,0.11719 z m 8.027344,-10.35157 h 9.003906 l -4.511718,-13.00781 z"
       style="font-style:normal;font-variant:normal;font-weight:normal;font-stretch:normal;font-family:'CMU Serif';-inkscape-font-specification:'CMU Serif'"
       id="path5069" /><path
       d="m 57.069202,131.23213 q 0,-3.39844 4.003907,-5.19531 2.402343,-1.15234 7.363281,-1.44531 v -1.46485 q 0,-2.48047 -1.308594,-3.78906 -1.289062,-1.32812 -2.929687,-1.32812 -2.929688,0 -4.335938,1.83593 1.191406,0.0391 1.621094,0.64453 0.429687,0.58594 0.429687,1.19141 0,0.80078 -0.507812,1.32813 -0.488281,0.50781 -1.328125,0.50781 -0.800781,0 -1.328125,-0.48828 -0.527344,-0.50782 -0.527344,-1.38672 0,-1.95313 1.757813,-3.24219 1.777343,-1.28906 4.296875,-1.28906 3.28125,0 5.46875,2.20703 0.683593,0.68359 1.015625,1.5625 0.351562,0.87891 0.390625,1.46484 0.03906,0.56641 0.03906,1.69922 v 7.98828 q 0,0.23438 0.07813,0.625 0.07813,0.39063 0.429688,0.89844 0.371093,0.48828 0.976562,0.48828 1.445313,0 1.425781,-2.55859 v -2.2461 h 1.015625 v 2.2461 q 0,2.1289 -1.132812,2.96875 -1.113281,0.82031 -2.148438,0.82031 -1.328125,0 -2.167968,-0.97656 -0.839844,-0.97656 -0.957032,-2.30469 -0.605468,1.52344 -1.992187,2.51953 -1.367188,0.97656 -3.242188,0.97656 -1.445312,0 -2.8125,-0.37109 -1.347656,-0.35156 -2.480468,-1.34766 -1.113282,-1.01562 -1.113282,-2.53906 z m 3.085938,-0.0391 q 0,1.48437 1.054687,2.44141 1.054688,0.95703 2.539063,0.95703 1.679687,0 3.183594,-1.28907 1.503906,-1.30859 1.503906,-3.86718 v -4.00391 q -4.433594,0.15625 -6.367188,1.93359 -1.914062,1.75782 -1.914062,3.82813 z"
       style="font-style:normal;font-variant:normal;font-weight:normal;font-stretch:normal;font-family:'CMU Serif';-inkscape-font-specification:'CMU Serif'"
       id="path5071" /><path
       d="m 103.28014,135.04073 v -1.23047 h 0.95703 q 2.16797,0 2.65625,-0.35157 0.50781,-0.37109 0.50781,-1.54296 v -20.95704 q 0,-1.15234 -0.50781,-1.5039 -0.50781,-0.3711 -2.65625,-0.3711 h -0.95703 v -1.25 h 22.51953 l 1.11328,9.00391 h -0.99609 q -0.27344,-2.28516 -0.64453,-3.59375 -0.35157,-1.32812 -1.23047,-2.34375 -0.85938,-1.01562 -2.28516,-1.40625 -1.40625,-0.41016 -3.6914,-0.41016 h -5.15625 q -1.36719,0 -1.66016,0.29297 -0.29297,0.27344 -0.29297,1.3086 v 9.58984 h 3.59375 q 2.75391,0 3.53516,-0.95703 0.78125,-0.95703 0.78125,-3.71094 h 1.01562 v 10.58594 h -1.01562 q 0,-2.71484 -0.78125,-3.69141 -0.78125,-0.97656 -3.53516,-0.97656 h -3.59375 v 10.68359 q 0,1.03516 0.29297,1.32813 0.3125,0.27344 1.66016,0.27344 h 5.33203 q 1.71875,0 2.96875,-0.21485 1.26953,-0.23437 2.14843,-0.78125 0.87891,-0.5664 1.46485,-1.21093 0.60547,-0.64454 1.01562,-1.79688 0.42969,-1.17187 0.66407,-2.24609 0.2539,-1.07422 0.52734,-2.83203 h 0.99609 l -1.67968,10.3125 z"
       style="font-style:normal;font-variant:normal;font-weight:normal;font-stretch:normal;font-family:'CMU Serif';-inkscape-font-specification:'CMU Serif'"
       id="path5073" /><path
       d="m 130.2528,126.23213 q 0,-3.76953 2.42187,-6.44531 2.42188,-2.67578 5.89844,-2.67578 3.51562,0 5.33203,2.28515 1.83594,2.28516 1.83594,5.56641 0,0.60547 -0.15625,0.72266 -0.15625,0.11718 -0.83985,0.11718 h -11.17187 q 0,4.08204 1.21094,5.9961 1.67968,2.67578 4.51171,2.67578 0.39063,0 0.85938,-0.0781 0.46875,-0.0781 1.42578,-0.41015 0.95703,-0.35156 1.79688,-1.26953 0.83984,-0.91797 1.32812,-2.36328 0.11719,-0.56641 0.50781,-0.54688 0.52735,0 0.52735,0.46875 0,0.35156 -0.39063,1.15234 -0.37109,0.78125 -1.09375,1.71875 -0.72265,0.9375 -2.1289,1.64063 -1.38672,0.70312 -3.06641,0.70312 -3.51563,0 -6.17188,-2.65625 -2.63671,-2.67578 -2.63671,-6.60156 z m 3.35937,-1.26953 h 9.49219 q 0,-0.83984 -0.15625,-1.77734 -0.13672,-0.9375 -0.56641,-2.22657 -0.41015,-1.30859 -1.38672,-2.1289 -0.97656,-0.82031 -2.42187,-0.82031 -0.64453,0 -1.34766,0.27343 -0.68359,0.27344 -1.52344,0.9375 -0.83984,0.66407 -1.42578,2.16797 -0.58593,1.50391 -0.66406,3.57422 z"
       style="font-style:normal;font-variant:normal;font-weight:normal;font-stretch:normal;font-family:'CMU Serif';-inkscape-font-specification:'CMU Serif'"
       id="path5075" /><path
       d="m 174.84264,135.04073 v -1.23047 h 0.95703 q 2.16797,0 2.65625,-0.35157 0.50781,-0.37109 0.50781,-1.54296 v -21.07422 q 0,-1.15235 -0.50781,-1.50391 -0.50781,-0.37109 -2.65625,-0.37109 h -0.95703 v -1.25 h 12.55859 q 4.35547,0 7.38282,2.14843 3.04687,2.12891 3.04687,5.0586 0,2.24609 -1.97266,4.0039 -1.97265,1.75782 -5.01953,2.51954 3.96485,1.36718 4.88282,4.6289 l 0.50781,3.20313 q 0.15625,1.15234 0.2539,1.73828 0.11719,0.58594 0.29297,1.38672 0.17578,0.80078 0.35157,1.1914 0.19531,0.3711 0.46875,0.78125 0.27343,0.39063 0.625,0.52735 0.37109,0.13672 0.85937,0.13672 0.91797,0 1.69922,-0.82032 0.78125,-0.82031 0.9375,-2.73437 0.0781,-0.64453 0.48828,-0.64453 0.50781,0 0.50781,0.64453 0,0.5664 -0.15625,1.23047 -0.15625,0.64453 -0.54687,1.40625 -0.3711,0.76172 -1.19141,1.26953 -0.82031,0.52734 -1.89453,0.52734 -3.125,0 -5.03906,-1.67969 -0.80078,-0.72265 -1.17188,-1.66015 -0.35156,-0.9375 -0.41015,-1.67969 -0.0586,-0.74219 -0.0586,-2.38281 0,-2.32422 -0.2539,-3.33985 -0.23438,-1.01562 -1.26953,-2.01171 -1.40625,-1.36719 -3.73047,-1.36719 h -4.58985 v 10.11719 q 0,1.15234 0.48828,1.52343 0.50782,0.3711 2.67579,0.3711 h 0.95703 v 1.23047 q -1.44532,-0.11719 -5.83985,-0.11719 -4.39453,0 -5.83984,0.11719 z m 7.55859,-14.1211 h 4.4336 q 2.1289,0 3.55468,-0.50781 1.44532,-0.52734 2.12891,-1.46484 0.68359,-0.9375 0.9375,-1.875 0.25391,-0.95704 0.25391,-2.14844 0,-1.40625 -0.3125,-2.46094 -0.3125,-1.05469 -0.9961,-1.67969 -0.68359,-0.625 -1.36718,-1.01562 -0.6836,-0.41016 -1.73829,-0.56641 -1.05468,-0.15625 -1.77734,-0.19531 -0.72266,-0.0391 -1.875,-0.0391 -1.95312,0 -2.36328,0.0781 -0.44922,0.0391 -0.625,0.25391 -0.17578,0.21484 -0.21484,0.46875 -0.0391,0.23437 -0.0391,0.80078 z"
       style="font-style:normal;font-variant:normal;font-weight:normal;font-stretch:normal;font-family:'CMU Serif';-inkscape-font-specification:'CMU Serif'"
       id="path5077" /><path
       d="m 204.0028,135.04073 v -1.23047 q 2.1289,0 2.61718,-0.25391 0.50782,-0.27344 0.50782,-1.5625 v -10.72266 q 0,-1.48437 -0.52735,-1.85546 -0.50781,-0.3711 -2.59765,-0.3711 v -1.25 l 5.5664,-0.42969 v 4.39454 q 0.56641,-1.71875 1.75781,-3.04688 1.21094,-1.34766 3.16407,-1.34766 1.28906,0 2.10937,0.72266 0.83985,0.72266 0.83985,1.71875 0,0.87891 -0.54688,1.32813 -0.52734,0.42968 -1.17187,0.42968 -0.72266,0 -1.23047,-0.44922 -0.48828,-0.46875 -0.48828,-1.26953 0,-0.48828 0.21484,-0.85937 0.23437,-0.39063 0.41016,-0.52735 0.17578,-0.13671 0.29296,-0.17578 -0.0781,-0.0391 -0.42968,-0.0391 -2.20703,0 -3.47657,2.20703 -1.25,2.1875 -1.25,5.3125 v 6.15235 q 0,1.15234 0.46875,1.52343 0.48829,0.3711 2.57813,0.3711 h 0.83984 v 1.23047 q -1.60156,-0.11719 -5.07812,-0.11719 -0.48828,0 -1.25,0.0195 -0.76172,0.0195 -1.75781,0.0586 -0.9961,0.0391 -1.5625,0.0391 z"
       style="font-style:normal;font-variant:normal;font-weight:normal;font-stretch:normal;font-family:'CMU Serif';-inkscape-font-specification:'CMU Serif'"
       id="path5079" /></g><g
     aria-label="Aa  Ee  Rr"
     style="font-style:normal;font-weight:normal;font-size:40px;line-height:1.25;font-family:sans-serif;letter-spacing:0px;word-spacing:0px;fill:#000000;fill-opacity:1;stroke:none"
     id="text3984"><path
       d="m 30.824329,193.48149 q 0,-0.52734 0.429688,-0.64453 0.449219,-0.11719 1.09375,-0.13672 0.664062,-0.0195 1.699219,-0.80078 1.054687,-0.78125 2.011718,-2.36328 L 49.144642,166.4893 q 0.03906,-0.0391 0.136719,-0.23437 0.09766,-0.21485 0.195312,-0.3125 0.09766,-0.0977 0.234375,-0.25391 0.15625,-0.15625 0.332031,-0.21484 0.175782,-0.0586 0.371094,-0.0586 0.15625,0 0.273438,0.0195 0.136718,0.0195 0.214843,0.11718 0.07813,0.0977 0.117188,0.13672 0.03906,0.0391 0.07813,0.19531 0.03906,0.15625 0.03906,0.19532 0,0.0391 0.03906,0.2539 v 0.19532 l 1.71875,24.84375 q 0.03906,0.91796 0.429687,1.15234 0.410157,0.23437 1.660157,0.29297 1.074218,0 1.074218,0.54687 0,0.6836 -0.800781,0.6836 -0.195312,0 -1.445312,-0.0586 -1.230469,-0.0586 -2.675782,-0.0586 -1.367187,0 -2.382812,0.0195 -1.015625,0.0195 -1.523438,0.0586 -0.488281,0.0391 -0.566406,0.0391 -0.605469,0 -0.605469,-0.56641 0,-0.39062 0.3125,-0.54687 0.332032,-0.17579 0.78125,-0.13672 0.46875,0.0195 1.054688,-0.0977 0.605469,-0.13672 1.054687,-0.48828 0.3125,-0.27344 0.3125,-1.09375 0,-0.23438 -0.05859,-0.95703 -0.05859,-0.72266 -0.15625,-2.20703 -0.09766,-1.50391 -0.214844,-3.10547 h -9.121094 q -0.351562,0.64453 -0.78125,1.38672 -0.429687,0.74218 -0.683594,1.1914 -0.253906,0.42969 -0.566406,0.95703 -0.292969,0.50782 -0.449219,0.82032 -0.15625,0.29297 -0.351562,0.625 -0.175781,0.33203 -0.253906,0.54687 -0.07813,0.19531 -0.175782,0.41016 -0.09766,0.21484 -0.117187,0.37109 -0.01953,0.13672 -0.01953,0.29297 0,0.56641 0.332031,0.87891 0.351562,0.3125 0.761719,0.35156 0.429687,0.0391 0.761718,0.19531 0.332032,0.13672 0.332032,0.41016 0,0.76172 -0.800782,0.76172 -0.117187,0 -0.585937,-0.0391 -0.449219,-0.0391 -1.25,-0.0586 -0.800781,-0.0195 -1.71875,-0.0195 -0.761719,0 -1.699219,0.0586 -0.9375,0.0586 -1.054687,0.0586 -0.878907,0 -0.878907,-0.56641 z m 9.921875,-9.82422 h 8.320313 l -0.878906,-13.08594 z"
       style="font-style:italic;font-variant:normal;font-weight:500;font-stretch:normal;font-size:40px;font-family:'CMU Serif';-inkscape-font-specification:'CMU Serif, Medium Italic';font-variant-ligatures:normal;font-variant-caps:normal;font-variant-numeric:normal;font-feature-settings:normal;text-align:start;writing-mode:lr-tb;text-anchor:start"
       id="path5056" /><path
       d="m 60.433704,188.28618 q 0,-4.35547 2.910157,-8.125 2.929687,-3.78906 6.25,-3.78906 2.285156,0 3.320312,2.36328 0.3125,-1.5625 1.601563,-1.5625 1.074218,0 1.074218,1.03515 0,0.27344 -0.15625,0.83985 l -2.714843,10.8789 q -0.273438,1.11328 -0.273438,2.05078 0,1.6211 1.015625,1.6211 0,0 0.01953,0 1.484375,0 2.675782,-4.7461 0.15625,-0.64453 0.273437,-0.78125 0.136719,-0.13671 0.488281,-0.13671 0.605469,0 0.605469,0.39062 0,0.0781 -0.15625,0.70313 -0.136719,0.625 -0.429687,1.58203 -0.292969,0.95703 -0.625,1.64062 -1.074219,2.2461 -2.910157,2.2461 -1.152343,0 -2.089843,-0.70313 -0.917969,-0.70312 -1.230469,-2.10937 -2.285156,2.79296 -4.804688,2.8125 -2.207031,0 -3.535156,-1.77735 -1.308594,-1.79687 -1.308594,-4.43359 z m 2.714844,1.75781 q 0,1.32813 0.488281,2.44141 0.488282,1.11328 1.71875,1.11328 1.484375,0 3.105469,-1.66016 1.621094,-1.66015 1.894531,-2.85156 l 1.875,-7.55859 q 0.117188,-0.35157 0.117188,-0.52735 0,-1.40625 -0.761719,-2.57812 -0.742187,-1.17188 -1.992187,-1.17188 -1.191407,0 -2.460938,1.28906 -1.25,1.26954 -2.011719,3.14454 -0.605468,1.40625 -1.289062,4.17968 -0.683594,2.77344 -0.683594,4.17969 z"
       style="font-style:italic;font-variant:normal;font-weight:500;font-stretch:normal;font-size:40px;font-family:'CMU Serif';-inkscape-font-specification:'CMU Serif, Medium Italic';font-variant-ligatures:normal;font-variant-caps:normal;font-variant-numeric:normal;font-feature-settings:normal;text-align:start;writing-mode:lr-tb;text-anchor:start"
       id="path5058" /><path
       d="m 107.66027,193.55962 q 0,-0.52735 0.23437,-0.625 0.25391,-0.11719 0.83985,-0.11719 1.95312,0 2.5,-0.29297 0.54687,-0.3125 0.78125,-1.40625 l 5.37109,-21.42578 q 0.15625,-0.60547 0.15625,-0.91797 0,-0.23438 -0.0781,-0.35156 -0.0781,-0.13672 -0.625,-0.23438 -0.54687,-0.0977 -1.62109,-0.0977 -0.48828,0 -0.66406,-0.0195 -0.17578,-0.0195 -0.29297,-0.13671 -0.11719,-0.11719 -0.11719,-0.3711 0,-0.48828 0.23438,-0.60547 0.23437,-0.11718 0.83984,-0.11718 h 18.67188 q 0.39062,0 0.50781,0.0195 0.15625,0 0.35156,0.11718 0.15625,0.0781 0.15625,0.23438 0,0.0391 -0.0195,0.0781 -0.0586,0.19532 -0.0195,0.60547 l -0.91797,7.07032 q -0.0391,0.39062 -0.0977,0.5664 -0.0391,0.15625 -0.17578,0.23438 -0.13672,0.0781 -0.41015,0.0781 -0.60547,0 -0.60547,-0.46875 0,-0.27344 0.0781,-0.68359 0.19531,-1.60156 0.19531,-2.5586 0,-2.24609 -1.09375,-3.14453 -1.09375,-0.89843 -4.21875,-0.89843 h -5 q -1.03515,0 -1.36718,0.19531 -0.3125,0.19531 -0.54688,1.15234 l -2.4414,9.84375 h 3.24218 q 2.36328,0 3.26172,-0.76172 0.89844,-0.76172 1.48438,-2.94922 0.23437,-0.8789 0.44922,-0.91796 0.11718,-0.0391 0.3125,-0.0391 0.64453,0 0.64453,0.46875 0,0.15625 -0.11719,0.52735 l -2.20703,8.78906 q -0.11719,0.52734 -0.23438,0.66406 -0.11718,0.13672 -0.48828,0.13672 -0.64453,0 -0.625,-0.46875 0,-0.0781 0.0391,-0.23437 0.0391,-0.17579 0.0391,-0.21485 0.35156,-1.32812 0.35156,-2.03125 0,-0.91797 -0.56641,-1.30859 -0.54687,-0.41016 -2.4414,-0.41016 h -3.47657 l -2.7539,10.9961 q 0,0.0391 -0.0781,0.39062 -0.0781,0.33203 -0.0781,0.48828 0,0.15625 0.0391,0.23438 0.0391,0.0781 0.3125,0.13672 0.29297,0.0391 0.87891,0.0391 h 4.88281 q 1.875,0 3.28125,-0.35156 1.40625,-0.3711 2.34375,-0.89844 0.9375,-0.52735 1.75781,-1.66016 0.82031,-1.13281 1.34766,-2.20703 0.54687,-1.09375 1.34765,-3.00781 0.27344,-0.6836 0.39063,-0.82031 0.13672,-0.13672 0.44922,-0.13672 0.60547,0 0.60547,0.42968 0,0.15625 -0.15625,0.48829 l -3.55469,8.75 q -0.19531,0.44921 -0.37109,0.54687 -0.15625,0.0977 -0.76172,0.0977 h -19.16016 q -0.39062,0 -0.56641,-0.0195 -0.15625,-0.0195 -0.29296,-0.11719 -0.13672,-0.11719 -0.13672,-0.35156 z"
       style="font-style:italic;font-variant:normal;font-weight:500;font-stretch:normal;font-size:40px;font-family:'CMU Serif';-inkscape-font-specification:'CMU Serif, Medium Italic';font-variant-ligatures:normal;font-variant-caps:normal;font-variant-numeric:normal;font-feature-settings:normal;text-align:start;writing-mode:lr-tb;text-anchor:start"
       id="path5060" /><path
       d="m 136.83995,187.4854 q 0,-4.92188 3.20313,-8.00782 3.20312,-3.10546 6.71875,-3.10546 1.83594,0 2.92969,0.97656 1.11328,0.97656 1.11328,2.42187 0,0.19532 -0.0195,0.42969 -0.0195,0.21484 -0.17578,0.78125 -0.15625,0.54688 -0.46875,1.03516 -0.29297,0.46875 -0.95704,1.01562 -0.66406,0.52735 -1.54296,0.89844 -2.2461,0.87891 -5.80079,0.87891 h -1.54296 q -0.6836,2.63671 -0.6836,4.39453 0,0.99609 0.19531,1.89453 0.19532,0.8789 0.91797,1.69922 0.72266,0.80078 1.91407,0.80078 0.68359,0 1.54296,-0.13672 0.85938,-0.13672 2.59766,-1.11328 1.73828,-0.97656 3.06641,-2.65625 0.35156,-0.44922 0.52734,-0.44922 0.23438,0 0.42969,0.25391 0.19531,0.23437 0.19531,0.39062 0,0.39063 -0.97656,1.44531 -0.97656,1.03516 -3.06641,2.10938 -2.07031,1.05469 -4.39453,1.05469 -2.71484,0 -4.21875,-2.07032 -1.50391,-2.07031 -1.50391,-4.9414 z m 3.69141,-3.55469 h 0.83984 q 0.60547,0 1.07422,-0.0195 0.48828,-0.0195 1.54297,-0.11719 1.05469,-0.0977 1.85547,-0.37109 0.80078,-0.29297 1.66016,-0.72266 0.85937,-0.44922 1.30859,-1.23047 0.46875,-0.78125 0.46875,-1.77734 0,-1.03516 -0.68359,-1.73828 -0.66407,-0.70313 -1.83594,-0.70313 -0.27344,0 -0.64453,0.0586 -0.35156,0.0586 -1.21094,0.42968 -0.85937,0.35157 -1.58203,0.9961 -0.72266,0.625 -1.52344,1.99218 -0.78125,1.36719 -1.26953,3.20313 z"
       style="font-style:italic;font-variant:normal;font-weight:500;font-stretch:normal;font-size:40px;font-family:'CMU Serif';-inkscape-font-specification:'CMU Serif, Medium Italic';font-variant-ligatures:normal;font-variant-caps:normal;font-variant-numeric:normal;font-feature-settings:normal;text-align:start;writing-mode:lr-tb;text-anchor:start"
       id="path5062" /><path
       d="m 176.13996,193.55962 q 0,-0.52735 0.23437,-0.625 0.25391,-0.11719 0.83985,-0.11719 1.95312,0 2.5,-0.29297 0.54687,-0.3125 0.78125,-1.40625 l 5.41015,-21.71875 q 0.15625,-0.56641 0.15625,-0.74219 0,-0.44922 -0.5664,-0.5664 -0.54688,-0.11719 -1.75782,-0.11719 -0.44922,0 -0.625,-0.0195 -0.17578,-0.0195 -0.3125,-0.11719 -0.13672,-0.11719 -0.13672,-0.35156 0,-0.52735 0.23438,-0.64453 0.23437,-0.11719 0.83984,-0.11719 h 10.56641 q 3.63281,0 5.82031,1.71875 2.20703,1.71875 2.20703,4.19922 0,2.36328 -2.1875,4.58984 -2.16797,2.20703 -6.21093,3.26172 1.5625,0.56641 2.5,1.77734 0.95703,1.21094 0.95703,2.85157 0,1.07421 -0.33203,3.53515 -0.23438,2.07031 -0.23438,3.02735 0,0.76171 0.0781,1.21093 0.0781,0.42969 0.37109,0.80078 0.3125,0.35157 0.85937,0.35157 0.95704,0 1.77735,-0.9375 0.83984,-0.9375 1.34765,-2.57813 0.0781,-0.27344 0.11719,-0.39062 0.0391,-0.13672 0.17578,-0.21485 0.15625,-0.0781 0.39063,-0.0781 0.60547,0 0.60547,0.52734 0,0.35156 -0.41016,1.32813 -0.39062,0.97656 -1.52344,2.10937 -1.11328,1.11328 -2.63672,1.11328 -2.07031,0 -3.51562,-1.07422 -1.44531,-1.09375 -1.44531,-3.16406 0,-0.64453 0.60547,-3.20312 0.68359,-2.71485 0.68359,-3.16407 0,-1.95312 -1.11328,-2.73437 -1.09375,-0.78125 -2.65625,-0.78125 h -4.31641 l -2.59765,10.52734 q -0.15625,0.56641 -0.15625,0.80078 0,0.23438 0.0781,0.35157 0.0781,0.11718 0.60547,0.23437 0.54687,0.0977 1.64062,0.0977 0.48829,0 0.66407,0.0195 0.17578,0.0195 0.29297,0.13672 0.11718,0.11719 0.11718,0.35156 0,0.72266 -0.76172,0.72266 -0.80078,0 -2.40234,-0.0586 -1.60156,-0.0586 -2.36328,-0.0586 -0.76172,0 -2.32422,0.0586 -1.54297,0.0586 -2.30469,0.0586 -0.5664,0 -0.5664,-0.48828 z m 10.3125,-13.63282 h 4.04297 q 3.76953,0 5.91796,-2.07031 0.95704,-0.95703 1.54297,-2.51953 0.58594,-1.5625 0.6836,-2.36328 0.0976,-0.80078 0.0976,-1.25 0,-1.07422 -0.46875,-1.83594 -0.44922,-0.76172 -1.03515,-1.11328 -0.56641,-0.37109 -1.6211,-0.56641 -1.03515,-0.19531 -1.66015,-0.21484 -0.60547,-0.0195 -1.69922,-0.0195 -2.03125,0 -2.30469,0.0781 -0.60547,0.15625 -0.87891,1.34766 z"
       style="font-style:italic;font-variant:normal;font-weight:500;font-stretch:normal;font-size:40px;font-family:'CMU Serif';-inkscape-font-specification:'CMU Serif, Medium Italic';font-variant-ligatures:normal;font-variant-caps:normal;font-variant-numeric:normal;font-feature-settings:normal;text-align:start;writing-mode:lr-tb;text-anchor:start"
       id="path5064" /><path
       d="m 205.06574,182.52446 q 0,-0.0781 0.15625,-0.68359 0.15625,-0.625 0.46875,-1.6211 0.33203,-1.01562 0.66406,-1.73828 1.09375,-2.10937 2.83203,-2.10937 0.0195,0 0.0391,0 1.11329,0 2.05079,0.70312 0.95703,0.68359 1.26953,2.16797 2.07031,-2.87109 4.84375,-2.87109 1.40625,0 2.65625,0.58593 1.25,0.56641 1.25,1.9336 0,1.03515 -0.64453,1.58203 -0.625,0.52734 -1.3086,0.52734 -0.72265,0 -1.07422,-0.39062 -0.33203,-0.41016 -0.33203,-0.87891 0,-0.19531 0.0781,-0.48828 0.0976,-0.3125 0.44922,-0.76172 0.35156,-0.46875 0.99609,-0.66406 -0.80078,-0.56641 -2.10938,-0.56641 -0.95703,0 -1.875,0.56641 -0.89843,0.54687 -1.48437,1.25 -0.56641,0.70312 -1.05469,1.58203 -0.46875,0.87891 -0.64453,1.28906 -0.15625,0.39063 -0.23437,0.58594 l -2.59766,10.48828 q -0.35156,1.48438 -1.5625,1.48438 -0.56641,0 -0.83984,-0.33204 -0.27344,-0.3125 -0.27344,-0.72265 0,-0.19531 0.11719,-0.54688 l 3.00781,-12.01172 q 0.27344,-1.11328 0.27344,-2.03125 0,-1.60156 -1.03516,-1.60156 -0.87891,0 -1.50391,1.21094 -0.625,1.19141 -1.21093,3.55469 -0.15625,0.64453 -0.27344,0.78125 -0.11719,0.13672 -0.48828,0.13672 -0.60547,-0.0195 -0.60547,-0.41016 z"
       style="font-style:italic;font-variant:normal;font-weight:500;font-stretch:normal;font-size:40px;font-family:'CMU Serif';-inkscape-font-specification:'CMU Serif, Medium Italic';font-variant-ligatures:normal;font-variant-caps:normal;font-variant-numeric:normal;font-feature-settings:normal;text-align:start;writing-mode:lr-tb;text-anchor:start"
       id="path5066" /></g><g
     aria-label="t"
     style="font-style:normal;font-weight:normal;font-size:238.65567017px;line-height:1.25;font-family:sans-serif;letter-spacing:0px;word-spacing:0px;fill:#000000;fill-opacity:1;stroke:none;stroke-width:5.96639156"
     id="text4797"><path
       d="m 253.90595,124.74216 v -5.2439 q 10.95392,-0.46612 18.17885,-8.15718 7.34146,-7.80758 9.78861,-17.363128 2.56368,-9.555549 2.79675,-20.626002 h 5.94308 v 43.93222 h 34.14361 v 7.45799 h -34.14361 v 66.30619 q 0,25.75337 16.08129,25.75337 6.87534,0 11.42005,-6.99187 4.54471,-7.10839 4.54471,-19.69375 v -13.16801 h 5.94309 v 13.63414 q 0,12.93495 -5.94309,22.60703 -5.94308,9.67208 -17.71272,9.67208 -4.31165,0 -8.6233,-1.16531 -4.19512,-1.04878 -9.78862,-3.84553 -5.47696,-2.91328 -8.97289,-9.90514 -3.3794,-7.1084 -3.3794,-17.36313 v -65.84007 z"
       style="font-style:normal;font-variant:normal;font-weight:normal;font-stretch:normal;font-family:'CMU Serif';-inkscape-font-specification:'CMU Serif';fill:#ffffff;stroke-width:5.96639156"
       id="path5053" /></g><g
     aria-label="Matrix"
     style="font-style:normal;font-weight:normal;font-size:40px;line-height:1.25;font-family:sans-serif;letter-spacing:0px;word-spacing:0px;fill:#2a7fff;fill-opacity:1;stroke:none"
     id="text4801"><path
       d="m 211.98177,276.75 v -1.43555 q 1.6862,0 2.75716,-0.31901 1.07097,-0.34179 1.45834,-0.95703 0.41015,-0.63802 0.5013,-1.04818 0.0911,-0.43294 0.0911,-1.13932 v -23.33333 q 0,-1.3444 -0.59244,-1.75456 -0.56967,-0.43294 -3.09896,-0.43294 h -1.11654 v -1.45834 h 7.88412 q 0.84309,0 1.07096,0.15951 0.22786,0.13672 0.56966,0.86588 l 10.11719,26.13607 10.20833,-26.27278 q 0.22787,-0.66081 0.43294,-0.77474 0.22787,-0.11394 1.11654,-0.11394 h 7.88412 v 1.45834 h -1.11654 q -2.5293,0 -3.12175,0.43294 -0.56966,0.41016 -0.56966,1.75456 v 24.58659 q 0,1.3444 0.56966,1.77734 0.59245,0.43294 3.12175,0.43294 h 1.11654 V 276.75 q -1.73177,-0.13672 -6.67644,-0.13672 -4.99023,0 -6.722,0.13672 v -1.43555 h 1.13932 q 2.5293,0 3.09896,-0.41015 0.56966,-0.43295 0.56966,-1.80013 v -26.77409 h -0.0456 l -11.46159,29.53125 q -0.31901,0.88867 -0.8431,0.88867 -0.56966,0 -0.93424,-1.02539 l -11.25652,-29.02995 h -0.0456 v 25.15625 q 0,0.70638 0.0911,1.13932 0.0911,0.41016 0.47851,1.04818 0.41016,0.61524 1.48112,0.95703 1.07097,0.31901 2.75716,0.31901 V 276.75 q -4.89908,-0.13672 -5.46875,-0.13672 -0.54687,0 -5.44596,0.13672 z"
       style="font-style:normal;font-variant:normal;font-weight:normal;font-stretch:normal;font-size:46.66666794px;font-family:'CMU Serif';-inkscape-font-specification:'CMU Serif';fill:#2a7fff;fill-opacity:1"
       id="path5040" /><path
       d="m 254.95703,272.30664 q 0,-3.96484 4.67123,-6.0612 2.80273,-1.3444 8.59049,-1.6862 v -1.70898 q 0,-2.89388 -1.52669,-4.42057 -1.50391,-1.54948 -3.41797,-1.54948 -3.41797,0 -5.05859,2.14192 1.38997,0.0456 1.89127,0.75196 0.50131,0.68359 0.50131,1.38997 0,0.93425 -0.59245,1.54948 -0.56966,0.59245 -1.54948,0.59245 -0.93425,0 -1.54948,-0.56966 -0.61524,-0.59245 -0.61524,-1.61784 0,-2.27865 2.05079,-3.78255 2.07356,-1.50391 5.01302,-1.50391 3.82812,0 6.38021,2.57487 0.79752,0.79753 1.18489,1.82292 0.41016,1.02539 0.45573,1.70898 0.0456,0.66081 0.0456,1.98242 v 9.31967 q 0,0.27343 0.0911,0.72916 0.0912,0.45573 0.5013,1.04818 0.43294,0.56966 1.13932,0.56966 1.6862,0 1.66342,-2.98503 v -2.62044 h 1.18489 v 2.62044 q 0,2.48373 -1.32161,3.46355 -1.29883,0.95703 -2.50651,0.95703 -1.54948,0 -2.5293,-1.13933 -0.97982,-1.13932 -1.11654,-2.6888 -0.70638,1.77735 -2.32422,2.93946 -1.59505,1.13932 -3.78255,1.13932 -1.6862,0 -3.28125,-0.43294 -1.57226,-0.41016 -2.89388,-1.57227 -1.29883,-1.1849 -1.29883,-2.96224 z m 3.60026,-0.0456 q 0,1.73177 1.23047,2.8483 1.23047,1.11654 2.96224,1.11654 1.95964,0 3.7142,-1.5039 1.75455,-1.5267 1.75455,-4.51172 v -4.67123 q -5.17252,0.18229 -7.42838,2.25586 -2.23308,2.05078 -2.23308,4.46615 z"
       style="font-style:normal;font-variant:normal;font-weight:normal;font-stretch:normal;font-size:46.66666794px;font-family:'CMU Serif';-inkscape-font-specification:'CMU Serif';fill:#2a7fff;fill-opacity:1"
       id="path5042" /><path
       d="m 277.21941,258.08789 v -1.02539 q 2.14192,-0.0912 3.55468,-1.59505 1.43555,-1.5267 1.91407,-3.39519 0.5013,-1.86848 0.54687,-4.0332 h 1.16211 v 8.5905 h 6.67643 v 1.45833 h -6.67643 v 12.9655 q 0,5.0358 3.14453,5.0358 1.3444,0 2.23308,-1.36718 0.88867,-1.38998 0.88867,-3.85092 v -2.57487 h 1.16211 v 2.66602 q 0,2.5293 -1.16211,4.42057 -1.16211,1.89128 -3.46354,1.89128 -0.8431,0 -1.6862,-0.22787 -0.82032,-0.20507 -1.91407,-0.75195 -1.07096,-0.56966 -1.75455,-1.93685 -0.66081,-1.38997 -0.66081,-3.39518 v -12.87435 z"
       style="font-style:normal;font-variant:normal;font-weight:normal;font-stretch:normal;font-size:46.66666794px;font-family:'CMU Serif';-inkscape-font-specification:'CMU Serif';fill:#2a7fff;fill-opacity:1"
       id="path5044" /><path
       d="m 295.76758,276.75 v -1.43555 q 2.48372,0 3.05338,-0.29622 0.59245,-0.31901 0.59245,-1.82292 v -12.50976 q 0,-1.73177 -0.61523,-2.16472 -0.59245,-0.43294 -3.0306,-0.43294 v -1.45833 l 6.49414,-0.50131 v 5.12696 q 0.66081,-2.00521 2.05078,-3.55469 1.41276,-1.57227 3.69141,-1.57227 1.5039,0 2.46093,0.8431 0.97982,0.8431 0.97982,2.00521 0,1.02539 -0.63802,1.54948 -0.61523,0.5013 -1.36719,0.5013 -0.8431,0 -1.43554,-0.52409 -0.56966,-0.54687 -0.56966,-1.48112 0,-0.56966 0.25065,-1.0026 0.27343,-0.45573 0.47851,-0.61523 0.20508,-0.15951 0.3418,-0.20508 -0.0911,-0.0456 -0.5013,-0.0456 -2.57487,0 -4.05599,2.57487 -1.45834,2.55208 -1.45834,6.19791 v 7.17774 q 0,1.3444 0.54688,1.77734 0.56966,0.43294 3.00781,0.43294 h 0.97982 V 276.75 q -1.86849,-0.13672 -5.92448,-0.13672 -0.56966,0 -1.45833,0.0228 -0.88868,0.0228 -2.05079,0.0684 -1.1621,0.0456 -1.82291,0.0456 z"
       style="font-style:normal;font-variant:normal;font-weight:normal;font-stretch:normal;font-size:46.66666794px;font-family:'CMU Serif';-inkscape-font-specification:'CMU Serif';fill:#2a7fff;fill-opacity:1"
       id="path5046" /><path
       d="m 314.2474,276.75 v -1.43555 q 2.48372,0 3.05339,-0.29622 0.56966,-0.31901 0.56966,-1.82292 v -12.55534 q 0,-1.73177 -0.59245,-2.14192 -0.56966,-0.41016 -2.84831,-0.41016 v -1.45833 l 6.51693,-0.50131 v 17.11264 q 0,1.38997 0.5013,1.73177 0.5013,0.34179 2.77995,0.34179 V 276.75 q -4.76237,-0.13672 -4.85352,-0.13672 -0.63802,0 -5.12695,0.13672 z m 1.95964,-28.75651 q 0,-0.93425 0.70638,-1.6862 0.72916,-0.77474 1.75455,-0.77474 1.02539,0 1.75456,0.70638 0.72917,0.6836 0.72917,1.77735 0,1.07096 -0.72917,1.77734 -0.72917,0.68359 -1.75456,0.68359 -1.07096,0 -1.77734,-0.75195 -0.68359,-0.75195 -0.68359,-1.73177 z"
       style="font-style:normal;font-variant:normal;font-weight:normal;font-stretch:normal;font-size:46.66666794px;font-family:'CMU Serif';-inkscape-font-specification:'CMU Serif';fill:#2a7fff;fill-opacity:1"
       id="path5048" /><path
       d="m 326.21029,276.75 v -1.43555 q 3.64584,0 5.97006,-2.80273 0,0 4.375,-5.5599 l -4.62565,-6.01562 q -1.64063,-2.09636 -2.3698,-2.46094 -0.70638,-0.38737 -3.12174,-0.38737 v -1.45833 q 1.91406,0.13672 4.42057,0.13672 1.38998,0 5.0586,-0.13672 v 1.45833 q -1.64063,0.0911 -1.64063,1.16211 0,0.36458 0.41016,0.8431 l 3.64583,4.7168 2.89388,-3.64584 q 0.70638,-0.8431 0.70638,-1.64062 0,-1.29883 -1.36719,-1.43555 v -1.45833 q 1.82292,0.13672 4.48894,0.13672 2.0052,0 3.82812,-0.13672 v 1.45833 q -3.55469,0.0911 -5.5599,2.41536 -0.88867,0.97982 -4.28385,5.28646 l 6.24349,8.06641 q 0.75195,0.97982 1.59505,1.23047 0.8431,0.22786 2.84831,0.22786 V 276.75 q -2.09635,-0.13672 -4.48893,-0.13672 -0.8431,0 -5.03581,0.13672 v -1.43555 q 0.8431,-0.0456 1.25326,-0.41015 0.43294,-0.38737 0.43294,-0.77474 0,-0.18229 -0.97982,-1.5267 l -3.55469,-4.67122 q -3.55469,4.19271 -4.01041,5.17253 -0.1823,0.41015 -0.1823,0.75195 0,1.25325 1.34441,1.45833 V 276.75 q -3.34961,-0.13672 -4.42058,-0.13672 -2.05078,0 -3.8737,0.13672 z"
       style="font-style:normal;font-variant:normal;font-weight:normal;font-stretch:normal;font-size:46.66666794px;font-family:'CMU Serif';-inkscape-font-specification:'CMU Serif';fill:#2a7fff;fill-opacity:1"
       id="path5050" /></g><g
     aria-label="a b c d e f g h i j k l m"
     style="font-style:normal;font-weight:normal;font-size:40px;line-height:1.25;font-family:sans-serif;letter-spacing:0px;word-spacing:0px;fill:#000000;fill-opacity:1;stroke:none"
     id="text4811"><path
       d="m 27.929687,351.44141 q 0,-3.39844 4.003907,-5.19532 2.402343,-1.15234 7.363281,-1.44531 v -1.46484 q 0,-2.48047 -1.308594,-3.78907 -1.289062,-1.32812 -2.929687,-1.32812 -2.929688,0 -4.335938,1.83594 1.191406,0.0391 1.621094,0.64453 0.429687,0.58594 0.429687,1.1914 0,0.80079 -0.507812,1.32813 -0.488281,0.50781 -1.328125,0.50781 -0.800781,0 -1.328125,-0.48828 -0.527344,-0.50781 -0.527344,-1.38672 0,-1.95312 1.757813,-3.24219 1.777343,-1.28906 4.296875,-1.28906 3.28125,0 5.46875,2.20703 0.683593,0.6836 1.015625,1.5625 0.351562,0.87891 0.390625,1.46485 0.03906,0.5664 0.03906,1.69922 v 7.98828 q 0,0.23437 0.07813,0.625 0.07813,0.39062 0.429688,0.89843 0.371093,0.48829 0.976562,0.48829 1.445313,0 1.425781,-2.5586 v -2.24609 h 1.015625 v 2.24609 q 0,2.12891 -1.132812,2.96875 -1.113281,0.82031 -2.148438,0.82031 -1.328125,0 -2.167968,-0.97656 -0.839844,-0.97656 -0.957032,-2.30469 -0.605468,1.52344 -1.992187,2.51954 -1.367188,0.97656 -3.242188,0.97656 -1.445312,0 -2.8125,-0.3711 -1.347656,-0.35156 -2.480468,-1.34765 -1.113282,-1.01563 -1.113282,-2.53906 z m 3.085938,-0.0391 q 0,1.48438 1.054687,2.44141 1.054688,0.95703 2.539063,0.95703 1.679687,0 3.183594,-1.28906 1.503906,-1.3086 1.503906,-3.86719 v -4.00391 q -4.433594,0.15625 -6.367188,1.9336 -1.914062,1.75781 -1.914062,3.82812 z"
       style="font-style:normal;font-variant:normal;font-weight:normal;font-stretch:normal;font-family:'CMU Serif';-inkscape-font-specification:'CMU Serif';letter-spacing:-3.20000005px"
       id="path5130" /><path
       d="m 54.244532,329.17578 v -1.25 l 5.761718,-0.42969 v 12.67578 q 2.324219,-2.59765 5.488282,-2.59765 3.4375,0 5.957031,2.63672 2.519531,2.63672 2.519531,6.40625 0,3.80859 -2.636719,6.44531 -2.636718,2.63672 -6.289062,2.63672 -3.320313,0 -5.234375,-2.92969 -1.40625,2.44141 -1.445313,2.48047 h -0.996093 v -23.84766 q 0,-1.48437 -0.527344,-1.85547 -0.527344,-0.37109 -2.597656,-0.37109 z m 5.878906,21.52344 q 0,0.83984 0.566406,1.67969 1.582031,2.42187 4.160156,2.42187 0.01953,0 0.03906,0 2.792969,0 4.53125,-2.55859 1.230469,-1.91407 1.230469,-5.66407 0,-3.71093 -1.152344,-5.5664 -1.601563,-2.5586 -4.199219,-2.5586 -2.929687,0 -4.726562,2.5586 -0.449219,0.64453 -0.449219,1.44531 z"
       style="font-style:normal;font-variant:normal;font-weight:normal;font-stretch:normal;font-family:'CMU Serif';-inkscape-font-specification:'CMU Serif';letter-spacing:-3.20000005px"
       id="path5132" /><path
       d="m 86.106251,353.0625 q -2.539063,-2.65625 -2.539063,-6.44531 0,-3.8086 2.5,-6.54297 2.5,-2.75391 6.171875,-2.75391 2.441407,0 4.277344,1.17188 1.835938,1.15234 1.835938,3.125 0,0.8789 -0.527344,1.38672 -0.507813,0.48828 -1.308594,0.48828 -0.839844,0 -1.347656,-0.50782 -0.488281,-0.52734 -0.488281,-1.32812 0,-0.35156 0.117187,-0.70313 0.117188,-0.35156 0.546875,-0.72265 0.449219,-0.3711 1.210938,-0.42969 -1.425782,-1.46484 -4.199219,-1.46484 -0.03906,0 -0.07813,0 -2.03125,0 -3.710938,1.91406 -1.679687,1.91406 -1.679687,6.28906 0,2.28516 0.546875,3.96485 0.566406,1.66015 1.484375,2.51953 0.917969,0.85937 1.816406,1.26953 0.898438,0.39062 1.777344,0.39062 3.925781,0 5.253906,-4.19922 0.117188,-0.39062 0.507813,-0.39062 0.527343,0 0.527343,0.39062 0,0.19532 -0.15625,0.70313 -0.15625,0.50781 -0.644531,1.30859 -0.488281,0.80078 -1.191406,1.50391 -0.683594,0.68359 -1.914063,1.19141 -1.210937,0.50781 -2.734375,0.50781 -3.515625,0 -6.054687,-2.63672 z"
       style="font-style:normal;font-variant:normal;font-weight:normal;font-stretch:normal;font-family:'CMU Serif';-inkscape-font-specification:'CMU Serif';letter-spacing:-3.20000005px"
       id="path5134" /><path
       d="m 108.18282,346.65625 q 0,-3.80859 2.65625,-6.44531 2.65625,-2.63672 6.25,-2.63672 3.04687,0 5.03906,2.48047 v -8.65235 q 0,-1.48437 -0.52735,-1.85547 -0.50781,-0.37109 -2.57812,-0.37109 v -1.25 l 5.76172,-0.42969 v 24.27735 q 0,1.48437 0.50781,1.875 0.52734,0.37109 2.59766,0.37109 V 355.25 l -5.87891,0.44922 v -2.65625 q -2.07031,2.63672 -5.35156,2.65625 -3.4375,0 -5.95703,-2.63672 -2.51953,-2.63672 -2.51953,-6.40625 z m 3.32031,0.0391 q 0,3.71094 1.15234,5.54688 1.60156,2.55859 4.19922,2.55859 2.96875,0 4.72656,-2.79297 0.44922,-0.68359 0.42969,-1.48437 v -8.20313 q 0,-0.80078 -0.42969,-1.46484 -1.64062,-2.40235 -4.3164,-2.40235 -2.79297,0 -4.53125,2.5586 -1.23047,1.91406 -1.23047,5.68359 z"
       style="font-style:normal;font-variant:normal;font-weight:normal;font-stretch:normal;font-family:'CMU Serif';-inkscape-font-specification:'CMU Serif';letter-spacing:-3.20000005px"
       id="path5136" /><path
       d="m 136.99766,346.44141 q 0,-3.76954 2.42187,-6.44532 2.42188,-2.67578 5.89844,-2.67578 3.51563,0 5.33203,2.28516 1.83594,2.28515 1.83594,5.5664 0,0.60547 -0.15625,0.72266 -0.15625,0.11719 -0.83984,0.11719 h -11.17188 q 0,4.08203 1.21094,5.99609 1.67969,2.67578 4.51172,2.67578 0.39062,0 0.85937,-0.0781 0.46875,-0.0781 1.42578,-0.41016 0.95703,-0.35156 1.79688,-1.26953 0.83984,-0.91797 1.32812,-2.36328 0.11719,-0.56641 0.50782,-0.54688 0.52734,0 0.52734,0.46875 0,0.35157 -0.39063,1.15235 -0.37109,0.78125 -1.09375,1.71875 -0.72265,0.9375 -2.1289,1.64062 -1.38672,0.70313 -3.06641,0.70313 -3.51562,0 -6.17187,-2.65625 -2.63672,-2.67578 -2.63672,-6.60156 z m 3.35937,-1.26954 h 9.49219 q 0,-0.83984 -0.15625,-1.77734 -0.13672,-0.9375 -0.56641,-2.22656 -0.41015,-1.3086 -1.38671,-2.12891 -0.97657,-0.82031 -2.42188,-0.82031 -0.64453,0 -1.34766,0.27344 -0.68359,0.27343 -1.52343,0.9375 -0.83985,0.66406 -1.42578,2.16797 -0.58594,1.5039 -0.66407,3.57421 z"
       style="font-style:normal;font-variant:normal;font-weight:normal;font-stretch:normal;font-family:'CMU Serif';-inkscape-font-specification:'CMU Serif';letter-spacing:-3.20000005px"
       id="path5138" /><path
       d="m 161.82812,339.25391 v -1.25 h 3.14454 v -4.58985 q 0,-2.96875 1.91406,-4.66797 1.93359,-1.69922 4.29687,-1.69922 1.5625,0 2.57813,0.83985 1.01562,0.83984 1.01562,1.97265 0,0.76172 -0.46875,1.26954 -0.44922,0.48828 -1.28906,0.48828 -0.80078,0 -1.26953,-0.50782 -0.44922,-0.50781 -0.44922,-1.21093 0,-1.28907 1.19141,-1.67969 -0.60547,-0.27344 -1.3086,-0.29297 -1.44531,0 -2.57812,1.48438 -1.11328,1.48437 -1.11328,3.96484 v 4.62891 h 4.6875 v 1.25 h -4.55078 V 352.125 q 0,1.15234 0.46875,1.52344 0.48828,0.37109 2.55859,0.37109 h 0.83984 V 355.25 q -1.60156,-0.11719 -5.07812,-0.11719 -0.48828,0 -1.25,0.0195 -0.74219,0.0195 -1.75781,0.0586 -0.9961,0.0391 -1.54297,0.0391 v -1.23047 q 2.1289,0 2.61718,-0.25391 0.48829,-0.27343 0.48829,-1.5625 v -12.94921 z"
       style="font-style:normal;font-variant:normal;font-weight:normal;font-stretch:normal;font-family:'CMU Serif';-inkscape-font-specification:'CMU Serif';letter-spacing:-3.20000005px"
       id="path5140" /><path
       d="m 180.68204,358.41406 q 0,-1.28906 0.97656,-2.40234 0.99609,-1.11328 2.71484,-1.60156 -1.75781,-1.11329 -1.75781,-3.55469 0,-1.875 1.23047,-3.32031 -1.875,-1.5625 -1.875,-4.1211 0,-2.36328 1.875,-4.10156 1.875,-1.73828 4.60937,-1.73828 2.40235,0 4.23829,1.44531 1.91406,-1.875 4.23828,-1.89453 1.03515,0 1.52343,0.64453 0.50782,0.64453 0.50782,1.32813 0,0.60546 -0.39063,0.89843 -0.37109,0.29297 -0.76172,0.29297 -0.48828,0 -0.83984,-0.3125 -0.33203,-0.33203 -0.33203,-0.83984 0,-0.83985 0.64453,-1.09375 -0.11719,-0.0391 -0.39063,-0.0391 -1.95312,0 -3.61328,1.5625 1.64063,1.52343 1.64063,3.88671 0,2.36329 -1.875,4.10157 -1.875,1.73828 -4.58985,1.73828 -2.24609,0 -3.96484,-1.25 -0.68359,0.80078 -0.68359,1.89453 0,0.99609 0.60547,1.77734 0.60546,0.78125 1.52343,0.89844 0.27344,0.0391 2.98828,0.0391 1.60157,0 2.48047,0.0391 0.87891,0.0391 2.12891,0.3125 1.26953,0.2539 2.26562,0.76171 2.59766,1.44532 2.61719,4.57032 0,2.28515 -2.63672,3.71093 -2.61718,1.44532 -6.25,1.44532 -3.67187,0 -6.26953,-1.46485 -2.57812,-1.44531 -2.57812,-3.61328 z m 2.08984,0 q 0,1.64063 1.93359,2.89063 1.9336,1.26953 4.86329,1.26953 2.87109,0 4.80468,-1.25 1.95313,-1.23047 1.95313,-2.91016 0,-1.1914 -0.6836,-1.95312 -0.68359,-0.76172 -2.08984,-1.07422 -1.38672,-0.29297 -2.36328,-0.35156 -0.97656,-0.0586 -2.77344,-0.0586 h -2.36328 q -1.36719,0.0781 -2.32422,1.07422 -0.95703,0.99609 -0.95703,2.36328 z m 2.1875,-14.96094 q 0,4.92188 3.49609,4.92188 1.75782,0 2.83204,-1.60156 0.64453,-1.07422 0.64453,-3.35938 0,-4.92187 -3.47657,-4.92187 -1.75781,0 -2.85156,1.60156 -0.64453,1.07422 -0.64453,3.35937 z"
       style="font-style:normal;font-variant:normal;font-weight:normal;font-stretch:normal;font-family:'CMU Serif';-inkscape-font-specification:'CMU Serif';letter-spacing:-3.20000005px"
       id="path5142" /><path
       d="m 207.73906,355.25 v -1.23047 q 2.12891,0 2.61719,-0.25391 0.48828,-0.27343 0.48828,-1.5625 v -20.80078 q 0,-1.48437 -0.52735,-1.85547 -0.50781,-0.37109 -2.57812,-0.37109 v -1.25 l 5.74219,-0.42969 v 13.90625 h 0.0391 q 0.64453,-1.44531 2.08984,-2.63672 1.44532,-1.1914 3.67188,-1.1914 3.00781,0 4.19922,1.48437 0.8789,0.9961 1.05468,2.10938 0.19532,1.11328 0.19532,4.0039 v 7.63672 q 0.0391,0.83985 0.68359,1.03516 0.64453,0.17578 2.44141,0.17578 V 355.25 q -4.08203,-0.11719 -4.49219,-0.11719 -0.3125,0 -4.51172,0.11719 v -1.23047 q 2.12891,0 2.61719,-0.25391 0.50781,-0.27343 0.50781,-1.5625 v -9.3164 q 0,-2.03125 -0.625,-3.22266 -0.625,-1.21094 -2.34375,-1.21094 -2.07031,0 -3.73047,1.73829 -1.66015,1.73828 -1.66015,4.66796 v 7.34375 q 0,1.28907 0.48828,1.5625 0.50781,0.25391 2.61718,0.25391 V 355.25 q -4.08203,-0.11719 -4.47265,-0.11719 -0.3125,0 -4.51172,0.11719 z"
       style="font-style:normal;font-variant:normal;font-weight:normal;font-stretch:normal;font-family:'CMU Serif';-inkscape-font-specification:'CMU Serif';letter-spacing:-3.20000005px"
       id="path5144" /><path
       d="m 236.84688,355.25 v -1.23047 q 2.1289,0 2.61719,-0.25391 0.48828,-0.27343 0.48828,-1.5625 v -10.76171 q 0,-1.48438 -0.50782,-1.83594 -0.48828,-0.35156 -2.4414,-0.35156 v -1.25 l 5.58594,-0.42969 v 14.66797 q 0,1.1914 0.42968,1.48437 0.42969,0.29297 2.38282,0.29297 V 355.25 q -4.08204,-0.11719 -4.16016,-0.11719 -0.54688,0 -4.39453,0.11719 z m 1.67969,-24.64844 q 0,-0.80078 0.60546,-1.44531 0.625,-0.66406 1.50391,-0.66406 0.87891,0 1.50391,0.60547 0.625,0.58593 0.625,1.52343 0,0.91797 -0.625,1.52344 -0.625,0.58594 -1.50391,0.58594 -0.91797,0 -1.52344,-0.64453 -0.58593,-0.64453 -0.58593,-1.48438 z"
       style="font-style:normal;font-variant:normal;font-weight:normal;font-stretch:normal;font-family:'CMU Serif';-inkscape-font-specification:'CMU Serif';letter-spacing:-3.20000005px"
       id="path5146" /><path
       d="m 251.89218,360.25 q 0,-0.80078 0.50781,-1.32813 0.48829,-0.50781 1.32813,-0.50781 0.83984,0 1.32812,0.50781 0.50782,0.52735 0.50782,1.32813 0,0.72266 -0.42969,1.17187 -0.41016,0.46875 -0.95703,0.625 1.03515,0.52735 2.14844,0.52735 0.91796,0 1.54296,-0.54688 0.625,-0.54687 0.89844,-1.44531 0.29297,-0.89844 0.39063,-1.66016 0.0977,-0.74218 0.0977,-1.60156 v -15.83984 q 0,-1.48438 -0.58593,-1.85547 -0.56641,-0.37109 -2.85157,-0.37109 v -1.25 l 6.07422,-0.42969 v 19.66797 q 0,2.67578 -1.60156,4.43359 -1.60156,1.77734 -3.86719,1.77734 -1.83594,0 -3.18359,-0.85937 -1.34766,-0.85938 -1.34766,-2.34375 z m 6.38672,-28.125 q -0.625,-0.625 -0.625,-1.50391 0,-0.8789 0.625,-1.5039 0.625,-0.625 1.50391,-0.625 0.8789,0 1.5039,0.625 0.625,0.625 0.625,1.5039 0,0.87891 -0.625,1.50391 -0.625,0.60547 -1.5039,0.60547 -0.87891,0 -1.50391,-0.60547 z"
       style="font-style:normal;font-variant:normal;font-weight:normal;font-stretch:normal;font-family:'CMU Serif';-inkscape-font-specification:'CMU Serif';letter-spacing:-3.20000005px"
       id="path5148" /><path
       d="m 273.67578,355.25 v -1.23047 q 2.12891,0 2.61719,-0.25391 0.50781,-0.27343 0.50781,-1.5625 v -20.80078 q 0,-1.48437 -0.52734,-1.85547 -0.50782,-0.37109 -2.59766,-0.37109 v -1.25 l 5.76172,-0.42969 v 19.19922 l 5.64453,-4.88281 q 0.87891,-0.76172 0.87891,-1.5625 0,-0.91797 -1.15235,-0.99609 v -1.25 q 1.67969,0.11718 4.47266,0.11718 1.64062,0 2.79297,-0.11718 v 1.25 q -2.51953,0.11718 -5.03906,2.14843 -0.56641,0.44922 -1.91407,1.6211 -1.32812,1.15234 -1.32812,1.26953 0,0.0391 0.0391,0.13672 0.0586,0.0976 0.13672,0.17578 0.0781,0.0781 0.0781,0.11719 l 5.07813,7.16796 q 1.03516,1.44532 1.79687,1.79688 0.76172,0.33203 2.08985,0.33203 V 355.25 q -1.71875,-0.11719 -3.4961,-0.11719 -0.95703,0 -4.3164,0.11719 v -1.23047 q 1.44531,0 1.44531,-0.9375 0,-0.64453 -3.24219,-5.11719 -0.23437,-0.3125 -0.76172,-0.99609 -0.48828,-0.72266 -0.76171,-1.07422 l -2.5586,2.1875 v 4.12109 q 0,1.28907 0.48828,1.5625 0.50782,0.25391 2.63672,0.25391 V 355.25 q -2.40234,-0.11719 -4.39453,-0.11719 -0.41016,0 -4.375,0.11719 z"
       style="font-style:normal;font-variant:normal;font-weight:normal;font-stretch:normal;font-family:'CMU Serif';-inkscape-font-specification:'CMU Serif';letter-spacing:-3.20000005px"
       id="path5150" /><path
       d="m 301.86563,355.25 v -1.23047 q 2.12891,0 2.61719,-0.25391 0.48828,-0.27343 0.48828,-1.5625 v -20.80078 q 0,-1.48437 -0.52734,-1.85547 -0.50782,-0.37109 -2.57813,-0.37109 v -1.25 l 5.74219,-0.42969 v 24.70703 q 0,1.28907 0.50781,1.5625 0.50781,0.25391 2.61719,0.25391 V 355.25 q -0.48828,0 -1.50391,-0.0391 -1.01562,-0.0391 -1.75781,-0.0586 -0.74219,-0.0195 -1.17188,-0.0195 -0.46875,0 -4.43359,0.11719 z"
       style="font-style:normal;font-variant:normal;font-weight:normal;font-stretch:normal;font-family:'CMU Serif';-inkscape-font-specification:'CMU Serif';letter-spacing:-3.20000005px"
       id="path5152" /><path
       d="m 319.80157,355.25 v -1.23047 q 2.12891,0 2.61719,-0.25391 0.48828,-0.27343 0.48828,-1.5625 v -10.72265 q 0,-1.48438 -0.52734,-1.85547 -0.50781,-0.37109 -2.57813,-0.37109 v -1.25 l 5.625,-0.42969 v 4.19922 q 1.875,-4.19922 5.91797,-4.19922 4.6875,0 5.33203,3.90625 0.6836,-1.52344 2.10938,-2.71485 1.44531,-1.1914 3.69141,-1.1914 3.00781,0 4.19921,1.48437 0.87891,0.9961 1.05469,2.10938 0.17578,1.11328 0.17578,4.0039 v 7.63672 q 0.0391,0.83985 0.6836,1.03516 0.64453,0.17578 2.4414,0.17578 V 355.25 q -4.08203,-0.11719 -4.47265,-0.11719 -0.3125,0 -4.53125,0.11719 v -1.23047 q 2.1289,0 2.61718,-0.25391 0.50782,-0.27343 0.50782,-1.5625 v -9.3164 q 0,-2.03125 -0.625,-3.22266 -0.625,-1.21094 -2.34375,-1.21094 -2.07032,0 -3.73047,1.73829 -1.66016,1.73828 -1.66016,4.66796 v 7.34375 q 0,1.28907 0.48828,1.5625 0.50782,0.25391 2.63672,0.25391 V 355.25 q -4.08203,-0.11719 -4.49219,-0.11719 -0.3125,0 -4.51171,0.11719 v -1.23047 q 2.1289,0 2.61718,-0.25391 0.50782,-0.27343 0.50782,-1.5625 v -9.3164 q 0,-2.03125 -0.625,-3.22266 -0.625,-1.21094 -2.34375,-1.21094 -2.07032,0 -3.73047,1.73829 -1.66016,1.73828 -1.66016,4.66796 v 7.34375 q 0,1.28907 0.48828,1.5625 0.50781,0.25391 2.61719,0.25391 V 355.25 q -4.08203,-0.11719 -4.47266,-0.11719 -0.3125,0 -4.51172,0.11719 z"
       style="font-style:normal;font-variant:normal;font-weight:normal;font-stretch:normal;font-family:'CMU Serif';-inkscape-font-specification:'CMU Serif';letter-spacing:-3.20000005px"
       id="path5154" /></g><g
     aria-label="n o p q r s t u v w x y z"
     style="font-style:normal;font-weight:normal;font-size:40px;line-height:1.25;font-family:sans-serif;letter-spacing:0px;word-spacing:0px;fill:#000000;fill-opacity:1;stroke:none"
     id="text4815"><path
       d="m 28.539062,396.75 v -1.23047 q 2.128907,0 2.617188,-0.25391 0.488281,-0.27343 0.488281,-1.5625 v -10.72265 q 0,-1.48438 -0.527344,-1.85547 -0.507812,-0.37109 -2.578125,-0.37109 v -1.25 l 5.625,-0.42969 v 4.19922 q 1.875,-4.19922 5.917969,-4.19922 3.007813,0 4.199219,1.48437 0.878906,0.9961 1.054687,2.10938 0.195313,1.11328 0.195313,4.0039 v 7.63672 q 0.03906,0.83985 0.683594,1.03516 0.644531,0.17578 2.441406,0.17578 V 396.75 q -4.082031,-0.11719 -4.492188,-0.11719 -0.3125,0 -4.511718,0.11719 v -1.23047 q 2.128906,0 2.617187,-0.25391 0.507813,-0.27343 0.507813,-1.5625 v -9.3164 q 0,-2.03125 -0.625,-3.22266 -0.625,-1.21094 -2.34375,-1.21094 -2.070313,0 -3.730469,1.73829 -1.660156,1.73828 -1.660156,4.66796 v 7.34375 q 0,1.28907 0.488281,1.5625 0.507812,0.25391 2.617187,0.25391 V 396.75 q -4.082031,-0.11719 -4.472656,-0.11719 -0.3125,0 -4.511719,0.11719 z"
       style="font-style:normal;font-variant:normal;font-weight:normal;font-stretch:normal;font-family:'CMU Serif';-inkscape-font-specification:'CMU Serif';letter-spacing:-3.20000005px"
       id="path5103" /><path
       d="m 60.06875,394.60156 q -2.636718,-2.61719 -2.636718,-6.40625 0,-3.80859 2.578125,-6.58203 2.597656,-2.79297 6.308593,-2.79297 3.632813,0 6.230469,2.77344 2.617188,2.75391 2.617188,6.60156 0,3.76953 -2.636719,6.38672 -2.617188,2.61719 -6.25,2.61719 -3.554688,0 -6.210938,-2.59766 z m 0.683594,-6.73828 q 0,3.88672 1.015625,5.64453 1.5625,2.67578 4.550781,2.67578 1.484375,0 2.714844,-0.80078 1.25,-0.80078 1.933594,-2.14844 0.878906,-1.75781 0.878906,-5.37109 0,-3.84766 -1.054687,-5.54687 -1.5625,-2.59766 -4.511719,-2.59766 -1.289063,0 -2.558594,0.68359 -1.25,0.66407 -2.011719,1.99219 -0.957031,1.75781 -0.957031,5.46875 z"
       style="font-style:normal;font-variant:normal;font-weight:normal;font-stretch:normal;font-family:'CMU Serif';-inkscape-font-specification:'CMU Serif';letter-spacing:-3.20000005px"
       id="path5105" /><path
       d="m 84.313282,403.27344 q 2.128906,0 2.617188,-0.27344 0.507812,-0.25391 0.507812,-1.52344 v -18.73047 q 0,-1.32812 -0.507812,-1.66015 -0.488282,-0.33203 -2.617188,-0.33203 v -1.25 l 5.761719,-0.42969 v 2.63672 q 2.402344,-2.63672 5.605469,-2.63672 3.398437,0 5.87891,2.63672 2.48046,2.63672 2.48046,6.40625 0,3.80859 -2.63671,6.44531 -2.636723,2.63672 -6.289067,2.63672 -1.992187,0 -3.339843,-1.01563 -1.328125,-1.03515 -1.582032,-1.79687 v 0.37109 6.71875 q 0,1.28906 0.507813,1.54297 0.507812,0.25391 2.617187,0.25391 v 1.23047 q -4.199218,-0.11719 -4.511718,-0.11719 -0.390625,0 -4.492188,0.11719 z m 5.878906,-11.07422 q 0,0.60547 0.07813,0.82031 0.09766,0.21484 0.488282,0.85938 1.582031,2.42187 4.160156,2.42187 0.01953,0 0.03906,0 2.285157,0 4.023438,-2.32422 1.738279,-2.34375 1.738279,-5.85937 0,-3.35938 -1.582029,-5.70313 -1.582031,-2.34375 -3.769531,-2.34375 -1.5625,0 -2.929688,0.83985 -1.367187,0.83984 -2.246094,2.36328 z"
       style="font-style:normal;font-variant:normal;font-weight:normal;font-stretch:normal;font-family:'CMU Serif';-inkscape-font-specification:'CMU Serif';letter-spacing:-3.20000005px"
       id="path5107" /><path
       d="m 113.63594,388.15625 q 0,-3.84766 2.63672,-6.46484 2.63672,-2.61719 6.19141,-2.61719 1.48437,0 2.69531,0.72265 1.23047,0.72266 1.75781,1.44532 0.54688,0.70312 0.91797,1.46484 l 1.50391,-3.63281 h 0.89843 v 22.40234 q 0,1.28906 0.48828,1.54297 0.50782,0.25391 2.61719,0.25391 v 1.23047 q -4.19922,-0.11719 -4.51172,-0.11719 -0.39062,0 -4.49218,0.11719 v -1.23047 q 2.1289,0 2.61718,-0.27344 0.50782,-0.25391 0.50782,-1.52344 v -7.16797 q -2.20704,2.8711 -5.3125,2.89063 -3.47657,0 -5.9961,-2.65625 -2.51953,-2.67578 -2.51953,-6.38672 z m 3.32031,0 q 0,3.4375 1.5625,5.80078 1.58203,2.34375 3.78907,2.34375 2.16796,0 3.67187,-1.62109 1.60156,-1.75782 1.60156,-3.37891 v -5.625 q 0,-1.875 -1.34765,-3.73047 -1.32813,-1.875 -3.51563,-1.875 -2.28515,0 -4.02344,2.30469 -1.73828,2.30469 -1.73828,5.78125 z"
       style="font-style:normal;font-variant:normal;font-weight:normal;font-stretch:normal;font-family:'CMU Serif';-inkscape-font-specification:'CMU Serif';letter-spacing:-3.20000005px"
       id="path5109" /><path
       d="m 141.35703,396.75 v -1.23047 q 2.12891,0 2.61719,-0.25391 0.50781,-0.27343 0.50781,-1.5625 v -10.72265 q 0,-1.48438 -0.52734,-1.85547 -0.50781,-0.37109 -2.59766,-0.37109 v -1.25 l 5.56641,-0.42969 v 4.39453 q 0.56641,-1.71875 1.75781,-3.04688 1.21094,-1.34765 3.16406,-1.34765 1.28907,0 2.10938,0.72265 0.83984,0.72266 0.83984,1.71875 0,0.87891 -0.54687,1.32813 -0.52735,0.42969 -1.17188,0.42969 -0.72265,0 -1.23047,-0.44922 -0.48828,-0.46875 -0.48828,-1.26953 0,-0.48828 0.21485,-0.85938 0.23437,-0.39062 0.41015,-0.52734 0.17578,-0.13672 0.29297,-0.17578 -0.0781,-0.0391 -0.42969,-0.0391 -2.20703,0 -3.47656,2.20704 -1.25,2.1875 -1.25,5.3125 v 6.15234 q 0,1.15234 0.46875,1.52344 0.48828,0.37109 2.57813,0.37109 h 0.83984 V 396.75 q -1.60156,-0.11719 -5.07812,-0.11719 -0.48829,0 -1.25,0.0195 -0.76172,0.0195 -1.75782,0.0586 -0.99609,0.0391 -1.5625,0.0391 z"
       style="font-style:normal;font-variant:normal;font-weight:normal;font-stretch:normal;font-family:'CMU Serif';-inkscape-font-specification:'CMU Serif';letter-spacing:-3.20000005px"
       id="path5111" /><path
       d="m 164.07812,396.22266 v -5.27344 q 0,-0.44922 0.0195,-0.60547 0.0195,-0.15625 0.13671,-0.27344 0.11719,-0.11719 0.35157,-0.11719 0.27343,0 0.37109,0.11719 0.11719,0.11719 0.19531,0.56641 0.60547,2.7539 1.89453,4.21875 1.3086,1.44531 3.67188,1.44531 2.24609,0 3.37891,-0.99609 1.13281,-0.9961 1.13281,-2.63672 0,-2.92969 -4.16016,-3.67188 -2.40234,-0.48828 -3.39844,-0.80078 -0.99609,-0.33203 -1.875,-1.05469 -1.71875,-1.40625 -1.71875,-3.39843 0,-1.99219 1.50391,-3.45703 1.52344,-1.46485 4.88281,-1.46485 2.2461,0 3.76953,1.13281 0.44922,-0.35156 0.6836,-0.64453 0.52734,-0.48828 0.80078,-0.48828 0.3125,0 0.37109,0.21485 0.0586,0.19531 0.0586,0.76171 v 4.02344 q 0,0.44922 -0.0195,0.60547 -0.0195,0.15625 -0.13672,0.27344 -0.11719,0.0976 -0.3711,0.0976 -0.44922,0 -0.46875,-0.37109 -0.3125,-4.84375 -4.6875,-4.84375 -2.36328,0 -3.41797,0.91797 -1.05468,0.89844 -1.05468,2.12891 0,0.68359 0.3125,1.21093 0.33203,0.50782 0.74218,0.82032 0.42969,0.29296 1.21094,0.58593 0.78125,0.27344 1.25,0.3711 0.48828,0.0976 1.40625,0.29297 3.20313,0.60546 4.55078,1.91406 1.67969,1.67969 1.67969,3.80859 0,2.36328 -1.60156,3.96485 -1.60156,1.60156 -4.82422,1.60156 -2.59766,0 -4.41406,-1.73828 -0.23438,0.23437 -0.41016,0.44922 -0.17578,0.19531 -0.25391,0.27343 -0.0586,0.0781 -0.0781,0.13672 -0.0195,0.0391 -0.0586,0.0781 -0.80079,0.80078 -0.9961,0.80078 -0.3125,0 -0.37109,-0.21485 -0.0586,-0.19531 -0.0586,-0.76171 z"
       style="font-style:normal;font-variant:normal;font-weight:normal;font-stretch:normal;font-family:'CMU Serif';-inkscape-font-specification:'CMU Serif';letter-spacing:-3.20000005px"
       id="path5113" /><path
       d="M 186.17422,380.75391 V 379.875 q 1.83594,-0.0781 3.04688,-1.36719 1.23047,-1.30859 1.64062,-2.91015 0.42969,-1.60157 0.46875,-3.45704 h 0.9961 v 7.36329 h 5.72265 v 1.25 h -5.72265 v 11.11328 q 0,4.3164 2.69531,4.3164 1.15234,0 1.91406,-1.17187 0.76172,-1.19141 0.76172,-3.30078 v -2.20703 h 0.9961 v 2.28515 q 0,2.16797 -0.9961,3.78906 -0.99609,1.6211 -2.96875,1.6211 -0.72265,0 -1.44531,-0.19531 -0.70313,-0.17579 -1.64063,-0.64454 -0.91796,-0.48828 -1.5039,-1.66015 -0.56641,-1.19141 -0.56641,-2.91016 v -11.03515 z"
       style="font-style:normal;font-variant:normal;font-weight:normal;font-stretch:normal;font-family:'CMU Serif';-inkscape-font-specification:'CMU Serif';letter-spacing:-3.20000005px"
       id="path5115" /><path
       d="m 209.12968,380.75391 v -1.25 l 5.87891,-0.42969 v 13.28125 q 0,0.95703 0.0781,1.52344 0.0781,0.54687 0.39062,1.1914 0.33203,0.64453 1.07422,0.9375 0.76172,0.29297 1.97266,0.29297 2.16796,0 3.49609,-1.77734 1.34766,-1.77735 1.34766,-4.41407 v -7.1289 q 0,-1.48438 -0.52735,-1.85547 -0.52734,-0.37109 -2.59765,-0.37109 v -1.25 l 5.8789,-0.42969 v 14.19922 q 0,1.48437 0.50781,1.875 0.52735,0.37109 2.61719,0.37109 V 396.75 l -5.76172,0.44922 v -3.61328 q -1.67968,3.59375 -5.15625,3.61328 -1.75781,0 -2.96875,-0.44922 -1.1914,-0.44922 -1.79687,-0.99609 -0.60547,-0.56641 -0.9375,-1.64063 -0.3125,-1.07422 -0.35156,-1.73828 -0.0391,-0.66406 -0.0391,-1.95313 v -5.99609 q 0,-2.71484 -0.39062,-3.18359 -0.39063,-0.48828 -2.71485,-0.48828 z"
       style="font-style:normal;font-variant:normal;font-weight:normal;font-stretch:normal;font-family:'CMU Serif';-inkscape-font-specification:'CMU Serif';letter-spacing:-3.20000005px"
       id="path5117" /><path
       d="m 237.6711,380.75391 v -1.25 q 1.79687,0.11718 3.88672,0.11718 0.76171,0 4.35546,-0.11718 v 1.25 q -2.28515,0 -2.28515,1.03515 0,0.15625 0.23437,0.6836 l 4.49219,11.15234 4.08203,-10.19531 q 0.23438,-0.6836 0.23438,-0.95703 0,-0.6836 -0.46875,-1.17188 -0.44922,-0.50781 -1.44532,-0.54687 v -1.25 q 2.03125,0.11718 3.47657,0.11718 1.64062,0 2.98828,-0.11718 v 1.25 q -1.19141,0 -2.03125,0.54687 -0.83985,0.52734 -1.11328,0.99609 -0.25391,0.44922 -0.52735,1.13282 l -5.23437,13.00781 q -0.3125,0.76172 -0.83985,0.76172 -0.35156,0 -0.50781,-0.15625 -0.13672,-0.13672 -0.33203,-0.60547 l -5.76172,-14.19922 q -0.39062,-0.99609 -0.89844,-1.23047 -0.50781,-0.2539 -2.30468,-0.2539 z"
       style="font-style:normal;font-variant:normal;font-weight:normal;font-stretch:normal;font-family:'CMU Serif';-inkscape-font-specification:'CMU Serif';letter-spacing:-3.20000005px"
       id="path5119" /><path
       d="m 265.60703,380.75391 v -1.25 q 2.16796,0.11718 3.71093,0.11718 0.76172,0 4.375,-0.11718 v 1.25 q -2.36328,0 -2.36328,1.07421 0,0.23438 0.19531,0.72266 l 3.8086,10.68359 3.4375,-9.6875 q -0.72266,-1.95312 -0.91797,-2.1875 -0.48828,-0.60546 -2.51953,-0.60546 v -1.25 q 1.79687,0.11718 3.55469,0.11718 0.68359,0 4.16015,-0.11718 v 1.25 q -2.36328,0 -2.36328,1.07421 0,0.15625 0.19531,0.76172 l 3.96485,11.15235 3.63281,-10.23438 q 0.19531,-0.52734 0.21484,-0.83984 0,-0.87891 -0.625,-1.36719 -0.625,-0.50781 -1.69922,-0.54687 v -1.25 q 2.28516,0.11718 3.71094,0.11718 1.60156,0 2.92969,-0.11718 v 1.25 q -2.48047,0.0781 -3.35938,2.55859 l -4.6875,13.125 q -0.44921,0.72266 -0.80078,0.76172 -0.52734,0 -0.80078,-0.76172 l -4.08203,-11.36719 -4.04297,11.32813 q -0.15625,0.48828 -0.29297,0.64453 -0.13672,0.15625 -0.50781,0.15625 -0.35156,0 -0.50781,-0.21485 -0.15625,-0.19531 -0.33203,-0.68359 l -5.03907,-14.16016 q -0.35156,-0.91796 -0.8789,-1.15234 -0.50781,-0.23437 -2.07031,-0.23437 z"
       style="font-style:normal;font-variant:normal;font-weight:normal;font-stretch:normal;font-family:'CMU Serif';-inkscape-font-specification:'CMU Serif';letter-spacing:-3.20000005px"
       id="path5121" /><path
       d="m 301.16016,396.75 v -1.23047 q 3.125,0 5.11718,-2.40234 0,0 3.75,-4.76563 l -3.96484,-5.15625 q -1.40625,-1.79687 -2.03125,-2.10937 -0.60547,-0.33203 -2.67578,-0.33203 v -1.25 q 1.64062,0.11718 3.78906,0.11718 1.19141,0 4.33594,-0.11718 v 1.25 q -1.40625,0.0781 -1.40625,0.99609 0,0.3125 0.35156,0.72266 l 3.125,4.04296 2.48047,-3.125 q 0.60547,-0.72265 0.60547,-1.40625 0,-1.11328 -1.17188,-1.23046 v -1.25 q 1.5625,0.11718 3.84766,0.11718 1.71875,0 3.28125,-0.11718 v 1.25 q -3.04688,0.0781 -4.76563,2.07031 -0.76171,0.83984 -3.67187,4.53125 l 5.35156,6.91406 q 0.64453,0.83984 1.36719,1.05469 0.72266,0.19531 2.44141,0.19531 V 396.75 q -1.79688,-0.11719 -3.84766,-0.11719 -0.72266,0 -4.31641,0.11719 v -1.23047 q 0.72266,-0.0391 1.07422,-0.35156 0.3711,-0.33203 0.3711,-0.66406 0,-0.15625 -0.83985,-1.3086 l -3.04687,-4.0039 q -3.04688,3.59375 -3.4375,4.43359 -0.15625,0.35156 -0.15625,0.64453 0,1.07422 1.15234,1.25 V 396.75 q -2.87109,-0.11719 -3.78906,-0.11719 -1.75781,0 -3.32031,0.11719 z"
       style="font-style:normal;font-variant:normal;font-weight:normal;font-stretch:normal;font-family:'CMU Serif';-inkscape-font-specification:'CMU Serif';letter-spacing:-3.20000005px"
       id="path5123" /><path
       d="m 329.4086,401.71094 q 0,-0.83985 0.48828,-1.28907 0.50781,-0.42968 1.19141,-0.42968 0.72265,0 1.1914,0.44922 0.48828,0.46875 0.48828,1.23046 0,1.48438 -1.5625,1.67969 0.76172,0.72266 1.875,0.72266 1.19141,0 2.14844,-0.87891 0.97656,-0.8789 1.38672,-1.71875 0.42969,-0.83984 1.03516,-2.36328 0.5664,-1.19141 0.99609,-2.36328 l -5.99609,-14.60938 q -0.39063,-0.95703 -0.9961,-1.17187 -0.60547,-0.21484 -2.24609,-0.21484 v -1.25 q 1.79687,0.11718 3.88672,0.11718 1.23047,0 4.35547,-0.11718 v 1.25 q -2.2461,0 -2.2461,1.03515 0,0.11719 0.23438,0.72266 l 4.45312,10.76172 4.04297,-9.84375 q 0.23438,-0.56641 0.23438,-0.95703 0,-1.64063 -1.875,-1.71875 v -1.25 q 2.63672,0.11718 3.47656,0.11718 1.64062,0 2.98828,-0.11718 v 1.25 q -2.67578,0 -3.71094,2.55859 l -7.05078,17.07031 q -1.91406,4.55078 -5.11719,4.57031 -1.52343,0 -2.59765,-0.9375 -1.07422,-0.9375 -1.07422,-2.30468 z"
       style="font-style:normal;font-variant:normal;font-weight:normal;font-stretch:normal;font-family:'CMU Serif';-inkscape-font-specification:'CMU Serif';letter-spacing:-3.20000005px"
       id="path5125" /><path
       d="m 357.73517,396.18359 q 0,-0.27343 0.37109,-0.72265 l 11.15235,-15.07813 h -4.55079 q -3.16406,0 -4.19921,1.17188 -1.01563,1.15234 -1.21094,4.39453 h -0.9961 l 0.44922,-6.44531 h 12.79297 q 0.44922,0 0.625,0.0195 0.17578,0.0195 0.29297,0.15625 0.11719,0.11718 0.11719,0.35156 0,0.23437 -0.35156,0.68359 l -11.13282,15.03907 h 4.72657 q 3.32031,0 4.43359,-1.38672 1.13281,-1.38672 1.40625,-5.09766 h 0.99609 l -0.68359,7.48047 h -13.18359 q -0.64454,0 -0.85938,-0.0781 -0.19531,-0.0976 -0.19531,-0.48828 z"
       style="font-style:normal;font-variant:normal;font-weight:normal;font-stretch:normal;font-family:'CMU Serif';-inkscape-font-specification:'CMU Serif';letter-spacing:-3.20000005px"
       id="path5127" /></g><g
     aria-label="0 1 2 3 4 5 6 7 8 9"
     style="font-style:normal;font-weight:normal;font-size:40px;line-height:1.25;font-family:sans-serif;letter-spacing:0px;word-spacing:0px;fill:#ffffff;fill-opacity:1;stroke:none"
     id="text4819"><path
       d="m 101.97166,426.21567 q 0,-5.87891 1.48437,-9.08203 2.07031,-4.76563 6.95313,-4.76563 1.03515,0 2.10937,0.29297 1.09375,0.27344 2.46094,1.34766 1.38672,1.07422 2.22656,2.83203 1.60156,3.39844 1.60156,9.375 0,5.83984 -1.48437,9.02344 -2.16797,4.64843 -6.95313,4.64843 -1.79687,0 -3.63281,-0.91797 -1.8164,-0.91796 -2.96875,-3.125 -1.79687,-3.30078 -1.79687,-9.6289 z m 3.32031,-0.48828 q 0,6.03515 0.42969,8.4375 0.48828,2.59765 1.8164,3.73047 1.34766,1.11328 2.83203,1.11328 1.60157,0 2.92969,-1.19141 1.34766,-1.21094 1.75781,-3.80859 0.44922,-2.5586 0.42969,-8.28125 0,-5.56641 -0.39062,-7.79297 -0.52735,-2.59766 -1.9336,-3.63281 -1.38672,-1.05469 -2.79297,-1.05469 -0.52734,0 -1.09375,0.15625 -0.54687,0.15625 -1.34765,0.60547 -0.80078,0.44922 -1.42578,1.5625 -0.60547,1.11328 -0.89844,2.79297 -0.3125,2.16796 -0.3125,7.36328 z"
       style="font-style:normal;font-variant:normal;font-weight:normal;font-stretch:normal;font-family:'CMU Serif';-inkscape-font-specification:'CMU Serif';letter-spacing:-3.20000005px;fill:#ffffff"
       id="path5082" /><path
       d="m 130.84509,416.17661 v -1.25 q 4.80469,0 7.28516,-2.5586 0.68359,0 0.80078,0.15625 0.11719,0.15625 0.11719,0.87891 v 22.4414 q 0,1.19141 0.58594,1.5625 0.58593,0.3711 3.14453,0.3711 h 1.26953 v 1.23047 q -1.40625,-0.11719 -6.48438,-0.11719 -5.07812,0 -6.46484,0.11719 v -1.23047 h 1.26953 q 2.51953,0 3.125,-0.35156 0.60547,-0.3711 0.60547,-1.58204 v -20.72265 q -2.08984,1.05469 -5.25391,1.05469 z"
       style="font-style:normal;font-variant:normal;font-weight:normal;font-stretch:normal;font-family:'CMU Serif';-inkscape-font-specification:'CMU Serif';letter-spacing:-3.20000005px;fill:#ffffff"
       id="path5084" /><path
       d="m 156.16385,439.00864 q 0,-0.72266 0.0586,-0.9375 0.0781,-0.21485 0.39062,-0.54688 l 7.67579,-8.55469 q 4.19921,-4.72656 4.19921,-8.84765 0,-2.67578 -1.40625,-4.58985 -1.38671,-1.91406 -3.94531,-1.91406 -1.75781,0 -3.24219,1.07422 -1.48437,1.07422 -2.16796,2.98828 0.11718,-0.0391 0.52734,-0.0391 0.99609,0 1.54297,0.625 0.5664,0.625 0.5664,1.46484 0,1.07422 -0.70312,1.60157 -0.68359,0.50781 -1.36719,0.50781 -0.27344,0 -0.64453,-0.0586 -0.35156,-0.0586 -0.91797,-0.60546 -0.5664,-0.56641 -0.5664,-1.5625 0,-2.79297 2.10937,-5.01954 2.12891,-2.22656 5.37109,-2.22656 3.67188,0 6.07422,2.1875 2.42188,2.16797 2.42188,5.56641 0,1.1914 -0.3711,2.28515 -0.35156,1.07422 -0.83984,1.91407 -0.46875,0.83984 -1.75781,2.1875 -1.28906,1.34765 -2.32422,2.30468 -1.03516,0.95704 -3.35938,2.98829 l -4.23828,4.12109 h 7.20703 q 3.51563,0 3.78907,-0.3125 0.39062,-0.56641 0.8789,-3.55469 h 1.01563 l -1.13281,6.95313 z"
       style="font-style:normal;font-variant:normal;font-weight:normal;font-stretch:normal;font-family:'CMU Serif';-inkscape-font-specification:'CMU Serif';letter-spacing:-3.20000005px;fill:#ffffff"
       id="path5086" /><path
       d="m 182.7326,433.61801 q 0,-1.1914 0.68359,-1.75781 0.68359,-0.56641 1.5625,-0.56641 0.91797,0 1.5625,0.60547 0.66406,0.58594 0.66406,1.6211 0,1.11328 -0.78125,1.73828 -0.76172,0.625 -1.85547,0.46875 0.95704,1.60156 2.71485,2.32422 1.77734,0.72265 3.41797,0.72265 1.71875,0 3.10547,-1.48437 1.40625,-1.48438 1.40625,-5.11719 0,-3.08594 -1.21094,-4.86328 -1.19141,-1.77735 -3.55469,-1.77735 h -1.75781 q -0.60547,0 -0.78125,-0.0586 -0.17578,-0.0586 -0.17578,-0.39062 0,-0.39063 0.60547,-0.46875 0.60546,0 1.5625,-0.11719 2.32421,-0.0781 3.55468,-2.08985 1.11328,-1.875 1.11328,-4.55078 0,-2.4414 -1.17187,-3.45703 -1.15234,-1.03515 -2.65625,-1.03515 -1.40625,0 -2.94922,0.58593 -1.54297,0.58594 -2.38281,1.89453 2.48047,0 2.48047,2.01172 0,0.87891 -0.56641,1.46485 -0.54687,0.5664 -1.46484,0.5664 -0.87891,0 -1.46485,-0.54687 -0.58593,-0.56641 -0.58593,-1.52344 0,-2.28516 2.03125,-3.86719 2.05078,-1.58203 5.05859,-1.58203 2.96875,0 5.15625,1.5625 2.20703,1.5625 2.20703,3.96485 0,2.36328 -1.5625,4.29687 -1.5625,1.93359 -4.04297,2.73438 3.04688,0.60546 4.86328,2.67578 1.81641,2.05078 1.81641,4.57031 0,3.125 -2.46094,5.42969 -2.46094,2.28515 -6.05469,2.28515 -3.32031,0 -5.70312,-1.79687 -2.38281,-1.79688 -2.38281,-4.47266 z"
       style="font-style:normal;font-variant:normal;font-weight:normal;font-stretch:normal;font-family:'CMU Serif';-inkscape-font-specification:'CMU Serif';letter-spacing:-3.20000005px;fill:#ffffff"
       id="path5088" /><path
       d="m 209.04744,432.40707 v -1.23046 l 12.28516,-18.76954 q 0.3125,-0.48828 0.80078,-0.46875 0.44922,0 0.54687,0.17579 0.0977,0.17578 0.0977,0.85937 v 18.20313 h 4.0039 v 1.23046 h -4.0039 v 3.47657 q 0,1.15234 0.46875,1.52343 0.48828,0.3711 2.55859,0.3711 h 0.83985 v 1.23047 q -1.64063,-0.11719 -5.42969,-0.11719 -3.76953,0 -5.41016,0.11719 v -1.23047 h 0.83985 q 2.07031,0 2.55859,-0.35156 0.48828,-0.3711 0.48828,-1.54297 v -3.47657 z m 1.13281,-1.23046 h 9.7461 v -14.92188 z"
       style="font-style:normal;font-variant:normal;font-weight:normal;font-stretch:normal;font-family:'CMU Serif';-inkscape-font-specification:'CMU Serif';letter-spacing:-3.20000005px;fill:#ffffff"
       id="path5090" /><path
       d="m 236.80759,432.56332 q 0,-1.1914 0.64454,-1.64062 0.64453,-0.46875 1.32812,-0.46875 0.91797,0 1.44531,0.58594 0.54688,0.5664 0.54688,1.36718 0,0.80079 -0.54688,1.38672 -0.52734,0.56641 -1.44531,0.56641 -0.44922,0 -0.68359,-0.0781 0.52734,1.83594 2.1289,3.16407 1.6211,1.32812 3.75,1.32812 2.67578,0 4.27735,-2.59765 0.95703,-1.67969 0.95703,-5.48829 0,-3.35937 -0.72266,-5.03906 -1.11328,-2.55859 -3.39844,-2.55859 -3.24218,0 -5.15625,2.79297 -0.23437,0.35156 -0.50781,0.37109 -0.39062,0 -0.48828,-0.21484 -0.0781,-0.23438 -0.0781,-0.83985 v -11.83593 q 0,-0.95704 0.39062,-0.95704 0.15625,0 0.48828,0.11719 2.51953,1.11328 5.3125,1.13281 2.8711,0 5.44922,-1.17187 0.19531,-0.11719 0.3125,-0.11719 0.39063,0 0.41016,0.44922 0,0.15625 -0.33203,0.625 -0.3125,0.44922 -0.9961,1.05469 -0.68359,0.58594 -1.5625,1.15234 -0.8789,0.56641 -2.16797,0.95703 -1.26953,0.3711 -2.67578,0.3711 -1.67969,0 -3.39844,-0.52735 v 7.79297 q 2.07032,-2.03125 5.07813,-2.03125 3.20312,0 5.41016,2.57813 2.20703,2.57812 2.20703,6.17187 0,3.76953 -2.61719,6.34766 -2.59766,2.57812 -6.11328,2.57812 -3.20313,0 -5.23438,-2.28515 -2.01172,-2.28516 -2.01172,-5.03907 z"
       style="font-style:normal;font-variant:normal;font-weight:normal;font-stretch:normal;font-family:'CMU Serif';-inkscape-font-specification:'CMU Serif';letter-spacing:-3.20000005px;fill:#ffffff"
       id="path5092" /><path
       d="m 263.37635,426.37192 q 0,-6.28906 3.20313,-10.13672 3.20312,-3.86719 7.32421,-3.86719 2.40235,0 3.73047,1.23047 1.34766,1.21094 1.34766,3.08594 0,1.03515 -0.60547,1.48437 -0.60547,0.44922 -1.23047,0.44922 -0.72265,0 -1.28906,-0.48828 -0.56641,-0.48828 -0.56641,-1.36719 0,-1.79687 2.20703,-1.79687 -1.03515,-1.60156 -3.51562,-1.60156 -0.76172,0 -1.54297,0.23437 -0.78125,0.21484 -1.79687,0.95703 -1.01563,0.74219 -1.79688,1.91406 -0.78125,1.17188 -1.32812,3.37891 -0.54688,2.20703 -0.54688,5.07813 v 0.95703 q 1.64063,-3.96485 5,-3.94532 3.35938,0 5.68359,2.5586 2.32422,2.55859 2.32422,6.34765 0,3.88672 -2.42187,6.46485 -2.42188,2.57812 -5.82031,2.57812 -1.52344,0 -2.91016,-0.64453 -1.36719,-0.625 -2.65625,-2.07031 -1.26953,-1.44531 -2.03125,-4.21875 -0.76172,-2.77344 -0.76172,-6.58203 z m 3.67188,3.59375 q 0,3.92578 0.72265,5.80078 0.11719,0.3125 0.3711,0.74219 0.27343,0.42968 0.72265,0.99609 0.46875,0.54688 1.23047,0.91797 0.76172,0.35156 1.64063,0.35156 2.67578,0 3.96484,-2.59765 0.68359,-1.44532 0.68359,-5.3711 0,-4.0039 -0.72265,-5.46875 -1.23047,-2.48047 -3.73047,-2.48047 -1.67969,0 -2.85156,1.15235 -1.15235,1.15234 -1.60157,2.69531 -0.42968,1.54297 -0.42968,3.26172 z"
       style="font-style:normal;font-variant:normal;font-weight:normal;font-stretch:normal;font-family:'CMU Serif';-inkscape-font-specification:'CMU Serif';letter-spacing:-3.20000005px;fill:#ffffff"
       id="path5094" /><path
       d="m 290.824,420.20004 1.30859,-8.22265 h 0.99609 q 0.11719,0.48828 0.3125,0.70312 0.21485,0.21485 1.34766,0.39063 1.15234,0.17578 3.47656,0.17578 h 9.70703 q 0,0.91797 -0.35156,1.40625 l -5.41015,7.59765 q -1.71875,2.40235 -2.48047,6.83594 -0.44922,2.96875 -0.42969,6.5625 v 2.03125 q 0,2.20703 -1.85547,2.20703 -1.83594,0 -1.83594,-2.20703 0,-7.63672 4.92188,-15.03906 0.52734,-0.76172 2.46094,-3.47656 1.95312,-2.71485 2.03125,-2.83203 h -8.28125 q -3.63282,0 -3.92579,0.23437 -0.39062,0.35156 -0.99609,3.63281 z"
       style="font-style:normal;font-variant:normal;font-weight:normal;font-stretch:normal;font-family:'CMU Serif';-inkscape-font-specification:'CMU Serif';letter-spacing:-3.20000005px;fill:#ffffff"
       id="path5096" /><path
       d="m 317.13885,432.97348 q 0,-4.47266 5.76172,-7.36328 -2.48047,-1.67969 -2.92969,-2.16797 -1.75781,-1.95312 -1.75781,-4.39453 0,-2.79297 2.10937,-4.72656 2.12891,-1.95313 5.13672,-1.95313 2.87109,0 5.03906,1.66016 2.16797,1.66015 2.16797,4.29687 0,3.71094 -4.84375,6.21094 3.20313,1.99219 3.96484,2.83203 1.95313,2.16797 1.95313,4.92188 0,3.20312 -2.46094,5.41015 -2.46094,2.1875 -5.85937,2.1875 -3.32032,0 -5.80078,-1.93359 -2.48047,-1.93359 -2.48047,-4.98047 z m 1.99218,0 q 0,2.48047 1.85547,4.14063 1.875,1.66015 4.47266,1.66015 2.51953,0 4.39453,-1.44531 1.89453,-1.44531 1.89453,-3.59375 0,-0.83984 -0.29297,-1.5625 -0.27343,-0.72266 -0.83984,-1.28906 -0.54688,-0.58594 -0.89844,-0.83985 -0.33203,-0.27343 -0.97656,-0.72265 l -4.92188,-3.10547 q -4.6875,2.59765 -4.6875,6.75781 z m 0.83985,-15.48828 q 0,1.91406 2.01172,3.24219 l 4.96093,3.20312 q 3.96485,-2.32422 3.96485,-5.60547 0,-2.1289 -1.6211,-3.53515 -1.62109,-1.42578 -3.86718,-1.42578 -2.20703,0 -3.82813,1.17187 -1.62109,1.15234 -1.62109,2.94922 z"
       style="font-style:normal;font-variant:normal;font-weight:normal;font-stretch:normal;font-family:'CMU Serif';-inkscape-font-specification:'CMU Serif';letter-spacing:-3.20000005px;fill:#ffffff"
       id="path5098" /><path
       d="m 344.02009,421.37192 q 0,-2.12891 0.625,-3.57422 0.625,-1.46484 1.93359,-2.91016 2.40235,-2.51953 5.87891,-2.51953 1.48437,0 2.79297,0.625 1.32812,0.625 2.57812,2.05078 1.26953,1.40625 2.03125,4.19922 0.76172,2.77344 0.76172,6.60156 0,6.19141 -3.00781,10.11719 -2.98828,3.92578 -7.03125,3.92578 -2.5586,0 -4.0625,-1.15234 -1.50391,-1.17188 -1.50391,-3.16406 0,-1.03516 0.58594,-1.46485 0.58594,-0.44922 1.25,-0.44922 0.72266,0 1.28906,0.48829 0.56641,0.46875 0.56641,1.34765 0,0.72266 -0.46875,1.28906 -0.44922,0.54688 -1.6211,0.54688 1.15235,1.44531 3.92579,1.44531 0.99609,0 1.99218,-0.44922 0.9961,-0.46875 2.07032,-1.58203 1.09375,-1.13281 1.75781,-3.49609 0.66406,-2.36328 0.66406,-5.6836 v -1.26953 q -1.60156,4.00391 -5,4.00391 -3.35937,0 -5.68359,-2.57813 -2.32422,-2.57812 -2.32422,-6.34765 z m 3.59375,0.0391 q 0,3.96484 0.72265,5.42969 1.23047,2.51953 3.73047,2.51953 2.44141,0 3.65235,-2.16797 1.23047,-2.1875 1.23047,-5.01953 0,-3.92578 -0.64454,-5.64453 -1.1914,-3.16406 -3.84765,-3.16406 -2.63672,0 -4.00391,2.51953 -0.83984,1.48437 -0.83984,5.52734 z"
       style="font-style:normal;font-variant:normal;font-weight:normal;font-stretch:normal;font-family:'CMU Serif';-inkscape-font-specification:'CMU Serif';letter-spacing:-3.20000005px;fill:#ffffff"
       id="path5100" /></g></g>
</svg>